<svg width="32" height="32" viewBox="0 0 32 32" fill="none" xmlns="http://www.w3.org/2000/svg">
<path d="M3.20254 2.56006C2.94398 2.56006 2.71049 2.71634 2.61129 2.95506C2.51209 3.19442 2.567 3.46952 2.75004 3.65256L9.15004 10.0526C9.26972 10.1729 9.43294 10.2401 9.60254 10.2401H21.7625V22.4001C21.7625 22.5697 21.8297 22.7329 21.95 22.8526L28.35 29.2526C28.4723 29.3748 28.6361 29.4401 28.8025 29.4401C28.8851 29.4401 28.9682 29.4239 29.0475 29.3913C29.2863 29.2921 29.4425 29.0586 29.4425 28.8001V3.20006C29.4425 2.84678 29.1558 2.56006 28.8025 2.56006H3.20254ZM9.66254 12.1626C9.4754 12.1445 9.28732 12.2098 9.15004 12.3476L2.75004 18.7476C2.62972 18.8672 2.56254 19.0305 2.56254 19.2001V28.8001C2.56254 29.1533 2.84926 29.4401 3.20254 29.4401H12.8025C12.9721 29.4401 13.1354 29.3729 13.255 29.2526L19.655 22.8526C19.8381 22.6695 19.893 22.3944 19.7938 22.1551C19.6946 21.9163 19.4611 21.7601 19.2025 21.7601H10.2425V12.8001C10.2425 12.5415 10.0863 12.308 9.84754 12.2088C9.78738 12.1838 9.72492 12.1686 9.66254 12.1626Z" fill="#DD123D"/>
</svg>
