<svg width="32" height="32" viewBox="0 0 32 32" fill="none" xmlns="http://www.w3.org/2000/svg">
<path d="M7 4V7H9V4H7ZM11 4V7H13V4H11ZM15 4V7H17V4H15ZM19 4V7H21V4H19ZM23 4V7H25V4H23ZM3 8V9V24H29V8H3ZM5 10H27V22H5V10ZM8.5 17C8.10218 17 7.72064 17.158 7.43934 17.4393C7.15804 17.7206 7 18.1022 7 18.5C7 18.8978 7.15804 19.2794 7.43934 19.5607C7.72064 19.842 8.10218 20 8.5 20C8.89782 20 9.27936 19.842 9.56066 19.5607C9.84196 19.2794 10 18.8978 10 18.5C10 18.1022 9.84196 17.7206 9.56066 17.4393C9.27936 17.158 8.89782 17 8.5 17ZM7 25V28H9V25H7ZM11 25V28H13V25H11ZM15 25V28H17V25H15ZM19 25V28H21V25H19ZM23 25V28H25V25H23Z" fill="#FFC700"/>
</svg>
