<svg width="32" height="32" viewBox="0 0 32 32" fill="none" xmlns="http://www.w3.org/2000/svg">
<path d="M13.3359 5.3335C12.6026 5.3335 12.0026 5.9335 12.0026 6.66683V8.36735L12.5625 8.3335C19.7358 8.08683 24.4154 14.2137 24.4154 14.2137C24.4154 14.2137 19.0491 20.7463 13.4557 20.7463C12.9691 20.7463 12.4759 20.7 12.0026 20.62V19.1473C12.4893 19.3073 13.0165 19.3869 13.5365 19.3869C17.4565 19.3869 21.1029 14.3205 21.1029 14.3205C21.1029 14.3205 17.7225 9.7137 12.5625 9.88037C12.3797 9.88037 12.1971 9.89311 12.0143 9.8999V8.36865C5.69032 8.87999 0.226562 14.228 0.226562 14.228C0.226562 14.228 3.3186 23.1784 12.0026 23.9924V22.3674C12.3959 22.414 12.8163 22.4468 13.2096 22.4468C18.423 22.4468 22.1893 19.7873 25.8359 16.6473C26.4426 17.134 28.9164 18.3071 29.4297 18.8205C25.963 21.7271 17.8821 24.0601 13.3021 24.0601C12.8621 24.0601 12.4226 24.0403 12.0026 23.9937V25.3335C12.0026 26.0668 12.6026 26.6668 13.3359 26.6668H30.0026C30.7359 26.6668 31.3359 26.0668 31.3359 25.3335V6.66683C31.3359 5.9335 30.7359 5.3335 30.0026 5.3335H13.3359ZM12.0026 9.90381V11.7866C12.3493 11.7533 12.7028 11.7264 13.0495 11.7397C16.3495 11.7397 18.3164 14.3075 18.3164 14.3075L15.6289 16.5666C14.4289 14.5532 14.0093 13.6672 12.0026 13.4272V19.1447C9.29394 18.226 8.39974 15.0522 8.39974 15.0522C8.39974 15.0522 9.97955 13.1689 11.9909 13.4129H12.0026V11.7866C8.16594 12.2053 5.85286 14.7619 5.85286 14.7619C5.85286 14.7619 7.18994 19.773 12.0026 20.633V22.366C5.63194 21.5747 3.45833 14.5522 3.45833 14.5522C3.45833 14.5522 6.30266 10.3501 12.0026 9.90381Z" fill="#FFC700"/>
</svg>
