<svg width="32" height="32" viewBox="0 0 32 32" fill="none" xmlns="http://www.w3.org/2000/svg">
<path d="M14.9563 3.2334C13.3819 3.39916 11.8695 4.48524 10.6356 5.38124C10.1575 5.72812 9.70633 6.05644 9.28585 6.3086C7.55337 7.34796 4.90825 7.36012 4.79625 7.36012C4.44361 7.36012 4.15625 7.64684 4.15625 8.00012V13.6801C4.15625 13.6872 4.16777 14.171 4.31433 14.9601H14.9563V3.2334ZM14.8385 27.2283C14.8762 27.2456 14.9166 27.2539 14.9563 27.2673V16.2401H4.61897C4.82185 16.9409 5.11305 17.7467 5.53289 18.6094C6.76041 21.1355 9.37225 24.6804 14.8385 27.2283ZM25.1802 18.6094C25.5994 17.7467 25.8913 16.9409 26.0942 16.2401H16.2362V27.0497C21.451 24.5166 23.9796 21.0779 25.1802 18.6094ZM26.5562 8.00012C26.5562 7.64684 26.2689 7.36012 25.9163 7.36012C25.8042 7.36012 23.1591 7.34796 21.4266 6.3086C21.0062 6.0558 20.5543 5.72812 20.0769 5.38124C18.969 4.57676 17.6366 3.61996 16.2362 3.31084V14.9601H26.3982C26.5447 14.1691 26.5562 13.6833 26.5562 13.6731V8.00012Z" fill="#FFC700"/>
</svg>
