<svg width="42" height="49" viewBox="0 0 42 49" fill="none" xmlns="http://www.w3.org/2000/svg">
<g clip-path="url(#clip0_3032_10201)">
<path d="M20.8572 48.8335C19.6761 48.4581 17.8932 47.1934 16.5911 46.2701C16.2677 46.0409 15.9878 45.8441 15.7798 45.702C13.8943 44.4385 12.0151 42.2541 11.4302 40.6645C10.6931 40.0171 10.1015 39.1907 9.67003 38.2067C9.52013 37.8625 9.39251 37.5089 9.28779 37.1483L8.65541 36.5158C8.05599 35.9162 7.61874 34.8687 7.42498 33.5672C7.24753 32.3801 7.2926 31.1226 7.54674 30.117C7.72883 29.3975 8.03757 28.694 8.33634 28.0142C8.48931 27.6657 8.63764 27.3284 8.76683 26.9962C8.62492 27.0092 8.48418 27.0157 8.34486 27.0157C8.20791 27.0157 8.07161 27.0093 7.93996 26.9962C7.07719 26.9103 5.79284 26.6569 4.57415 25.9373C3.35547 25.2179 2.48528 24.2052 1.98631 22.9273L1.75528 22.335L2.38875 22.28C4.21287 22.122 5.24207 21.5058 6.14632 20.9623C6.24425 20.9034 6.34162 20.8454 6.43838 20.7884C5.84929 20.6551 5.27026 20.4808 4.70548 20.2666C3.48962 19.8052 1.83371 18.9426 0.846048 17.472C0.363264 16.759 0.0765008 15.9315 0.0145401 15.0725C-0.0564378 14.1227 0.132719 13.0912 0.575976 12.0068C1.40003 9.991 3.49494 8.72493 5.02452 7.80025C5.54088 7.48787 5.98696 7.21845 6.29607 6.976C7.19394 6.27319 7.76178 5.64919 8.13692 4.94744C8.6011 4.08632 8.78674 3.06796 8.70472 1.83377L8.60784 0.360352L9.54686 1.4994C10.3543 2.47801 10.6762 3.88683 10.8039 4.89633C10.9522 6.07019 10.9182 7.34196 10.7127 8.29859C10.0866 11.2113 8.37292 12.6514 7.13825 13.5292C7.93532 13.9335 9.13199 14.1447 10.6517 14.1447C11.2496 14.1447 11.8916 14.112 12.561 14.0474C13.0532 13.7801 13.5511 13.6445 14.0419 13.6445C14.3806 13.6436 14.716 13.7122 15.0271 13.8462C15.25 13.7936 15.5286 13.6992 15.8206 13.6006C16.519 13.3645 17.3881 13.0706 18.2551 13.0706C18.6426 13.0669 19.0275 13.1338 19.3908 13.2683C19.8202 13.1743 20.4838 13.1033 21.0023 13.1033C21.5209 13.1033 22.1845 13.1743 22.6143 13.2676C22.9776 13.1332 23.3625 13.0661 23.7499 13.0699C24.6166 13.0699 25.4857 13.3638 26.1841 13.5998C26.4761 13.6985 26.7547 13.793 26.9777 13.8454C27.2887 13.7115 27.6241 13.6429 27.9628 13.6439C28.4536 13.6439 28.9515 13.7795 29.4438 14.0467C30.1134 14.1114 30.7551 14.144 31.353 14.144C32.8731 14.144 34.0698 13.9328 34.8665 13.5285C33.6332 12.6514 31.9181 11.2113 31.2909 8.29859C30.9204 6.57493 31.0347 3.22271 32.4568 1.4994L33.3969 0.360352L33.2996 1.83235C33.218 3.06653 33.4036 4.0849 33.8674 4.94602C34.2444 5.64599 34.8122 6.27178 35.7083 6.97458C36.0156 7.21561 36.4465 7.48503 36.9458 7.79742C38.4445 8.73445 40.4972 10.0183 41.4176 11.9834C41.8537 12.9137 42.0463 13.8292 41.9906 14.7009C41.9397 15.4932 41.6845 16.2556 41.2326 16.9673C40.7003 17.8082 39.5954 19.0232 37.3766 20.0352C36.7619 20.3169 36.1264 20.5508 35.4758 20.7348C35.6029 20.8087 35.7299 20.885 35.8584 20.962C36.7641 21.5054 37.7904 22.1216 39.6163 22.2796L40.2498 22.3346L40.0188 22.927C39.5198 24.2049 38.6493 25.2179 37.4309 25.937C36.2126 26.6561 34.9279 26.91 34.0651 26.9959C33.9335 27.009 33.7972 27.0153 33.6602 27.0153C33.5232 27.0153 33.3812 27.009 33.2382 26.9959C33.3674 27.3281 33.5157 27.6653 33.6687 28.0139C33.9675 28.6936 34.2763 29.3982 34.4583 30.1166C34.7125 31.1222 34.7568 32.3798 34.5801 33.5668C34.3863 34.8684 33.9491 35.9159 33.3497 36.5154L32.7173 37.1479C32.6121 37.5089 32.484 37.8626 32.3336 38.2071C31.9024 39.1911 31.3105 40.0174 30.5734 40.6648C29.9885 42.2545 28.1094 44.4389 26.2239 45.7024C26.0148 45.8425 25.7359 46.0405 25.4126 46.2705C24.1105 47.193 22.3275 48.4585 21.1465 48.8339L21.0023 48.8797L20.8572 48.8335Z" fill="#930C28"/>
<path d="M33.9276 30.2413C33.4598 28.3813 32.069 26.5671 32.3034 24.7351C32.8189 25.1594 33.678 25.1594 33.9276 24.9864C30.6475 21.3907 32.545 17.6431 27.9716 16.3255C27.7711 15.9272 26.5435 15.327 25.2226 15.1268C24.0191 14.9447 22.0896 14.3661 20.9996 14.8072C19.9097 14.3675 17.9802 14.9461 16.7766 15.1268C15.4557 15.327 14.2282 15.9272 14.0276 16.3255C9.45431 17.6445 11.3517 21.3921 8.07166 24.9864C8.32164 25.1594 9.18066 25.1594 9.69581 24.7351C9.92988 26.5671 8.53915 28.3813 8.07166 30.2413C7.59295 32.1467 7.92583 35.0566 9.05042 36.1872C8.98625 35.399 9.09287 34.6062 9.36284 33.8633C9.4098 37.3334 10.6018 39.3119 11.8827 40.3946C12.3416 41.7898 14.1109 43.9953 16.0683 45.3142C17.0788 45.9949 19.599 47.9412 20.9996 48.387C22.3999 47.9395 24.9187 45.9949 25.9309 45.3142C27.8883 43.9953 29.6586 41.7898 30.1165 40.3946C31.3974 39.3109 32.588 37.3323 32.6364 33.8633C32.9064 34.6062 33.0131 35.399 32.9488 36.1872C34.0734 35.0566 34.4067 32.1467 33.9276 30.2413Z" fill="black"/>
<path d="M18.6683 45.4315C17.4143 43.8226 17.0171 42.5312 16.8502 41.8537C15.9512 41.1357 14.9899 39.9059 14.5927 38.8686C14.4468 39.7153 14.7699 40.9223 14.9379 41.2289C14.0598 40.4565 13.6942 39.5247 13.4851 38.6675C13.2137 38.2864 12.9628 37.81 12.9139 37.5907C12.9072 37.926 13.0184 38.4658 13.0847 38.6564C12.6981 37.9224 11.3839 33.2208 12.5135 30.664C11.6358 31.2836 11.4006 33.5224 11.4151 34.3164C10.5845 32.1268 11.1433 29.8069 12.1886 28.0071C12.46 26.1018 11.2896 24.662 10.4328 24.7467C10.7468 25.8904 10.3503 27.1819 9.75464 28.4576C9.21329 29.617 8.62614 31.4904 8.92417 32.8877C9.28449 31.6809 9.80181 31.1569 10.1622 30.8234C9.77027 32.8877 10.5696 35.9999 11.2751 37.016C11.3534 35.857 11.4476 35.4916 11.5731 35.063C11.9806 39.5883 14.4935 43.2723 18.6683 45.4315Z" fill="#930C28"/>
<path d="M23.3359 45.4315C24.5898 43.8226 24.987 42.5312 25.1542 41.8537C26.0527 41.1357 27.0138 39.9059 27.4111 38.8686C27.557 39.7153 27.2339 40.9223 27.066 41.2289C27.9439 40.4565 28.3095 39.5247 28.5185 38.6675C28.7899 38.2864 29.0408 37.81 29.0896 37.5907C29.0964 37.926 28.9851 38.4658 28.9189 38.6564C29.3054 37.9224 30.6195 33.2208 29.4901 30.664C30.368 31.2836 30.6029 33.5224 30.5884 34.3164C31.4188 32.1268 30.8601 29.8069 29.8149 28.0071C29.5436 26.1018 30.7137 24.662 31.5704 24.7467C31.2568 25.89 31.654 27.1815 32.2496 28.4572C32.791 29.6166 33.3781 31.49 33.0801 32.8874C32.7197 31.6806 32.2025 31.1565 31.8422 30.8231C32.234 32.8874 31.4347 35.9995 30.7293 37.0157C30.6511 35.8566 30.5568 35.4912 30.4313 35.0626C30.0228 39.5883 27.5102 43.2723 23.3359 45.4315Z" fill="#930C28"/>
<path d="M11.5534 32.5107C11.4138 33.1958 11.3668 33.878 11.3738 34.2465C11.2997 34.0491 11.2358 33.8478 11.1823 33.6434C11.2053 33.9697 11.2683 34.2917 11.3699 34.6018L11.0673 35.2962C10.2683 33.2789 10.2016 31.0361 10.879 28.9728C10.6164 29.1677 10.4036 29.4245 10.2587 29.7213C10.3242 29.1824 10.478 28.6773 10.7688 28.2243C10.1854 28.7511 9.78546 29.4615 9.58604 30.2306C9.66208 28.4941 11.0721 27.1108 11.4476 25.4153C11.455 25.3828 11.4613 25.3501 11.4676 25.3173C11.1398 24.9252 10.7482 24.7113 10.4072 24.747C10.7165 25.8794 10.3263 27.1618 9.74015 28.4285C9.2074 29.5798 8.62961 31.44 8.92289 32.8276C9.27746 31.6292 9.78655 31.1089 10.1412 30.7778C9.75549 32.8276 10.5421 35.9178 11.2364 36.9268C11.3134 35.7759 11.4062 35.4131 11.5296 34.9875C11.6928 36.8164 12.1991 38.5069 13.0192 40.0132C11.9773 37.671 11.463 35.0813 11.5534 32.5107Z" fill="#DD123D"/>
<path d="M30.4488 32.5093C30.5883 33.1942 30.6357 33.8763 30.6284 34.2448C30.7025 34.0474 30.7664 33.8461 30.8198 33.6418C30.7969 33.968 30.7338 34.2899 30.6323 34.6001C30.7329 34.8315 30.8338 35.0628 30.9349 35.2943C31.7338 33.2774 31.8006 31.0349 31.1232 28.9721C31.3858 29.1669 31.5986 29.4237 31.7435 29.7204C31.6779 29.1816 31.5242 28.6766 31.2333 28.2237C31.8167 28.7504 32.2166 29.4606 32.4161 30.2297C32.3401 28.4934 30.93 27.1104 30.5545 25.4152C30.5472 25.3828 30.5409 25.35 30.5346 25.3172C30.8624 24.9252 31.2539 24.7114 31.5949 24.747C31.2863 25.8821 31.6772 27.1642 32.2634 28.4308C32.7962 29.5818 33.3739 31.4417 33.0807 32.829C32.7261 31.6309 32.217 31.1106 31.8624 30.7795C32.248 32.829 31.4614 35.9186 30.7672 36.9275C30.6901 35.7768 30.5974 35.414 30.4739 34.9885C30.3107 36.817 29.8045 38.5072 28.9844 40.0132C30.0255 37.6688 30.5406 35.0794 30.4488 32.5093Z" fill="#DD123D"/>
<path d="M40.9725 12.2106C39.8163 9.7465 36.6854 8.38495 35.4049 7.37984C33.8049 6.12504 32.6282 4.68201 32.8162 1.83813C31.53 3.39605 31.3888 6.55016 31.7495 8.22686C32.4395 11.437 34.5102 12.7333 35.7024 13.5594C34.3641 14.7096 31.5821 14.762 29.2916 14.5319C28.5494 14.1033 27.744 14.0001 27.0327 14.3645C26.0288 14.1972 24.1465 13.1098 22.6511 13.7894C22.2851 13.6848 21.5425 13.6012 21.0028 13.6012C20.4631 13.6012 19.7209 13.6848 19.3545 13.7894C17.8592 13.1098 15.9768 14.1972 14.9729 14.3645C14.2615 13.9987 13.4562 14.1033 12.714 14.5319C10.4235 14.762 7.64296 14.7092 6.3032 13.5594C7.49543 12.7333 9.5657 11.437 10.2561 8.22686C10.6168 6.55016 10.476 3.39605 9.1894 1.83813C9.37776 4.68201 8.20107 6.12504 6.60071 7.37984C5.31879 8.38495 2.06163 9.69155 1.03323 12.2106C-1.63278 18.7249 6.31738 20.586 8.29436 20.5717C6.58444 20.8072 5.70567 22.4863 2.44319 22.7675C3.44747 25.3398 5.94681 26.3279 7.99648 26.5318C9.49863 26.6811 11.071 25.8259 11.3955 25.5228C11.6048 25.6429 11.8696 25.7001 12.1402 25.7213C12.0774 26.0351 12.0462 26.558 12.0462 26.558C11.6916 27.1963 11.4788 28.0844 11.7916 28.9836C11.3952 30.1447 11.5416 31.7048 12.1686 32.9138C12.7955 34.1229 13.5803 34.6235 14.0835 35.502C14.5867 36.3807 15.2758 38.5512 15.3069 39.4377C15.3381 40.324 15.3278 42.355 16.8651 42.9717C17.9268 44.0335 19.4485 44.4466 21.0025 44.4466C22.5564 44.4466 24.078 44.0335 25.1398 42.9717C26.6771 42.355 26.6646 40.3265 26.6979 39.4377C26.7313 38.5487 27.4196 36.3792 27.9214 35.502C28.4232 34.6249 29.2079 34.1218 29.8364 32.9138C30.4647 31.7059 30.6087 30.1447 30.2111 28.9821C30.5246 28.083 30.3122 27.1941 29.9565 26.5567C29.9565 26.5567 29.9253 26.0337 29.8626 25.7199C30.1342 25.699 30.3995 25.6415 30.6073 25.5213C30.9317 25.8245 32.5042 26.6797 34.0063 26.5305C36.056 26.3265 38.5553 25.3384 39.5596 22.7661C36.2971 22.4825 35.418 20.8058 33.7084 20.5704C35.6857 20.586 43.6266 17.869 40.9725 12.2106Z" fill="black"/>
<path d="M13.5527 26.467C14.1736 26.7953 14.95 27.7703 15.2271 28.1911C14.351 28.1706 13.8088 27.9625 13.6745 27.6984C13.4971 27.3496 13.4696 26.8311 13.5527 26.467Z" fill="white"/>
<path d="M25.7587 40.0048C25.6854 40.0588 25.4547 40.1767 25.2608 40.1447C26.1367 39.3767 26.2782 37.9805 25.6595 37.6047C25.5493 37.8036 25.4461 38.0235 25.1261 38.0825C25.2939 37.8677 25.3619 37.2395 25.0422 37.0945C24.5088 36.9066 23.1285 37.4587 22.1374 38.2383C22.2004 38.061 22.4834 37.6532 22.7615 37.4168C22.157 37.5624 21.7914 37.884 21.0038 37.884C20.2162 37.884 19.8492 37.5618 19.2462 37.4168C19.5243 37.6532 19.8073 38.061 19.8702 38.2383C18.8792 37.4597 17.5003 36.9066 16.9655 37.0945C16.6454 37.2402 16.7137 37.8677 16.8816 38.0825C16.5615 38.0235 16.4569 37.8036 16.3481 37.6047C15.7295 37.9805 15.871 39.3767 16.7467 40.1447C16.5526 40.1767 16.3201 40.0588 16.249 40.0048C16.6003 41.1915 17.5596 41.8896 18.3359 41.8572C17.9846 42.099 17.0039 42.244 16.4901 41.5892C16.8154 42.3999 17.6279 42.5072 18.3935 42.4695C19.159 42.4315 19.8951 42.1638 21.0056 42.1638C22.1161 42.1638 22.8521 42.4319 23.6177 42.4695C24.3833 42.5072 25.1962 42.3999 25.5212 41.5892C25.0073 42.2444 24.0277 42.0986 23.6754 41.8572C24.448 41.8896 25.4081 41.1915 25.7587 40.0048Z" fill="#930C28"/>
<path d="M18.8371 40.0059C18.338 39.4126 17.7174 39.0877 17.3648 39.2113C16.953 39.2007 16.5777 39.0206 16.4531 38.7815C16.4774 39.2279 16.719 39.5097 17.1034 39.7139C17.1246 40.0543 17.3312 40.5092 17.6863 40.9309C18.2426 41.5914 18.9979 41.8842 19.2684 41.6651C19.5389 41.4456 19.3934 40.6667 18.8371 40.0059Z" fill="black"/>
<path d="M12.2791 15.3351C8.85715 15.3748 6.63778 15.0797 5.62142 13.9062C5.43339 14.0043 5.2347 14.2161 5.18264 14.3683C4.94256 16.3891 6.40157 17.308 7.08326 17.6713C8.11024 18.218 10.2478 18.5368 11.2854 18.2037C9.19602 18.1963 8.3815 17.8994 7.67853 17.6385C6.97559 17.3777 6.05309 16.6463 5.81086 16.0377C7.06416 17.4285 9.22259 17.7324 10.9422 17.4429C9.54272 17.4797 8.50548 17.2547 7.8372 16.8925C9.87698 17.3198 11.3254 16.7476 11.9589 16.3637C11.9936 15.9872 12.1328 15.5451 12.2791 15.3351Z" fill="white"/>
<path d="M8.78579 19.5709C6.02826 19.0701 4.26559 17.9226 3.98578 16.2325C3.70594 14.5425 4.78239 13.4148 5.67566 12.8216C7.27695 11.758 10.2426 9.70253 9.44955 5.03979C8.26758 8.0959 4.86183 8.7482 2.5135 11.3767C0.727646 13.3763 1.53374 16.0553 2.79474 16.8689C2.39011 16.0397 2.46042 14.3865 2.74165 13.7396C2.35812 14.1672 2.09903 15.0224 2.15071 15.3981C1.79916 14.4594 2.22348 13.3848 2.70017 12.7901C3.99633 11.1114 5.34309 10.9232 6.85755 9.49381C6.6192 10.2763 5.12619 11.33 4.84636 11.7888C6.69161 10.8815 8.37662 9.54622 8.82727 7.96574C8.67191 9.65049 7.06145 11.1796 5.28159 12.3105C3.31291 13.5624 3.05277 15.4504 3.43631 16.5456C3.87223 17.79 5.35436 19.3725 8.78579 19.5709Z" fill="white"/>
<path d="M12.2796 21.9687C12.0549 21.5542 11.9248 21.0079 11.8934 20.8025C11.6458 20.9132 11.3932 21.0132 11.2085 20.9975C11.3192 21.1083 11.4297 21.1505 11.609 21.1873C11.1767 21.303 10.2971 20.9132 9.00093 21.0397C6.89876 21.3084 5.80833 23.1735 3.4375 23.1417C4.18597 24.4012 6.20386 25.5141 7.85801 25.7024C9.5122 25.8908 10.7905 24.9879 10.7905 24.9879C10.5447 24.8475 10.4332 24.6577 10.4043 24.5234C10.7412 24.776 11.3875 24.8957 11.7669 24.7971C11.7042 24.6842 11.6732 24.5563 11.6773 24.4273C11.2128 24.4837 10.968 24.2376 10.2657 24.3915C9.56329 24.5455 8.55077 24.5216 8.12204 24.3494C9.22495 24.23 9.77979 23.8999 10.0256 23.5697C10.1871 23.3661 10.4543 23.4361 10.7351 23.4083C10.4822 22.9938 9.68509 22.8076 9.08776 22.8988C9.47654 22.9452 9.85119 23.0733 10.1871 23.2746C9.44968 23.3461 8.61724 22.9584 7.58113 23.3168C8.13602 23.2885 8.59967 23.424 8.81048 23.5133C7.98163 23.4572 7.39856 23.5554 7.20277 23.6205C7.53328 23.692 7.58222 23.698 7.81403 23.7047C6.62685 23.9367 5.39072 23.8874 4.66008 23.5716C6.67438 23.6073 7.76476 21.9698 9.36641 21.9348C8.8816 21.8154 8.32679 21.7944 7.91944 21.9204C8.48147 21.4674 9.64046 21.6185 10.0273 21.71C10.4143 21.8015 11.3621 22.2438 11.6351 22.4546C11.4671 22.134 11.1945 21.8804 10.8627 21.7361C11.3682 21.8365 11.6525 22.0934 11.8795 22.3474C11.7366 22.0419 11.5368 21.8154 11.4261 21.7311C11.7634 21.8468 12.0584 22.1681 12.185 22.3528C12.0266 21.9204 11.853 21.7257 11.7369 21.6096C12.0199 21.7247 12.1496 21.865 12.2796 21.9687Z" fill="#DD123D"/>
<path d="M11.7903 24.8416C11.7282 24.734 11.6978 24.612 11.7022 24.4889C11.2462 24.5424 11.0059 24.3091 10.3162 24.455C9.62659 24.601 8.63245 24.5783 8.21148 24.4151C9.29439 24.302 9.83918 23.9892 10.0805 23.6764C10.239 23.4834 10.5015 23.5497 10.7772 23.5233C10.5289 23.1306 9.74625 22.9542 9.15967 23.0405C9.54146 23.0846 9.90928 23.206 10.239 23.3967C9.51505 23.4644 8.69767 23.0971 7.68034 23.4367C8.22517 23.4099 8.68054 23.5382 8.88743 23.6229C8.07361 23.5697 7.50111 23.6628 7.30888 23.7244C7.63341 23.7921 7.68143 23.7979 7.90912 23.8043C6.7641 24.0203 5.57283 23.979 4.85124 23.6933C4.83767 23.6885 4.82467 23.6835 4.81227 23.678L4.42188 23.6151C4.42188 23.6151 5.2855 24.1825 5.771 24.1906C5.33917 24.3494 5.12941 24.2813 5.12941 24.2813C5.12941 24.2813 6.91041 25.8109 8.871 25.4172C8.53528 25.3352 8.40407 25.1731 8.40407 25.1731C8.40407 25.1731 9.29548 25.2848 10.0816 24.9053L9.71467 25.3116C9.71467 25.3116 9.99526 25.3071 10.3342 25.2915C10.507 25.2151 10.6733 25.1256 10.8315 25.0238C10.5902 24.8907 10.4808 24.711 10.4524 24.5836C10.7832 24.8217 11.4178 24.9351 11.7903 24.8416Z" fill="#930C28"/>
<path d="M5.64844 24.2954C6.15312 24.1662 6.68341 24.3328 7.01295 24.5797C7.28655 24.7847 7.79952 25.1245 8.10458 25.2346C7.10163 25.2696 6.36437 24.4501 5.64844 24.2954Z" fill="black"/>
<path d="M6.63281 24.2602C7.16363 24.2033 7.57369 24.4076 7.95436 24.5665C8.3351 24.7255 9.30578 24.8208 9.82577 24.717C9.01639 25.0452 8.30606 25.0785 7.80053 24.8076C7.30215 24.5383 6.98036 24.3072 6.63281 24.2602Z" fill="black"/>
<path d="M28.8615 30.3771C29.7482 29.8683 29.655 27.4474 29.1807 27.1283C29.0864 27.829 28.5948 28.3413 28.2915 28.4981C27.9882 28.6548 27.3012 28.8758 26.6127 28.7754C27.1512 29.4186 28.0092 29.2669 28.2287 29.1885C28.4483 29.1101 28.8825 29.0055 29.097 28.1687C29.3219 28.718 29.1701 29.7289 28.4799 29.8995C27.7897 30.0701 27.0207 29.6485 26.3616 29.0733C26.5237 29.4761 26.8167 30.0041 27.2456 30.114C26.733 30.5321 26.075 30.098 25.5979 29.5439C25.7338 29.9257 25.8962 30.6158 25.964 31.2172C25.9849 31.4002 25.8856 31.5988 25.8019 31.8133C25.8856 32.148 26.1087 32.8417 25.9587 33.5509C25.931 33.2962 25.7916 32.9757 25.5405 32.6059C25.7044 32.9757 25.8243 33.6066 25.6696 34.3384C25.6764 34.0806 25.5579 33.5509 25.3347 33.2037C25.5508 33.9839 25.5022 35.0306 24.7488 35.6927C25.1184 35.17 24.7768 34.0892 24.7559 33.6083C24.735 33.1275 24.6793 32.1023 24.2679 31.1055C24.658 31.3842 24.9162 31.9566 25.0347 32.4927C25.4958 32.1094 25.3539 31.175 25.0489 30.5424C25.0765 30.675 25.0843 31.2743 24.9779 31.5953C24.9361 31.3303 24.4813 30.2775 24.2597 29.9779C24.1688 29.7477 23.8621 28.6949 23.8273 28.1861C23.9458 28.3744 24.1969 28.8134 24.5722 29.19C24.4885 28.9669 24.3909 28.458 24.3977 28.1371C24.5085 28.4176 24.6666 28.6771 24.8651 28.9041C24.8861 28.4928 24.6328 27.5974 24.5789 27.468C24.4956 27.2658 24.2242 26.9311 23.8958 26.7499C23.8958 26.7499 24.2235 27.2517 24.2583 27.7886C23.9234 27.3772 23.303 26.6382 22.0687 26.3942C22.5011 26.1155 23.1356 25.9758 23.833 26.0457C23.9862 25.6482 24.1816 25.3138 24.4885 25.0903C24.3558 25.4184 24.382 26.1921 24.6626 26.5545C24.7486 26.3208 24.8726 26.1027 25.0294 25.9091C25.0521 25.818 25.1092 25.4287 25.2975 25.141C25.0668 25.2886 24.8671 25.4797 24.7098 25.7038C24.7594 24.3989 25.9034 23.6879 26.5063 23.4733C26.329 23.6982 26.068 23.9511 25.931 24.4982C26.3922 23.9858 27.2654 23.4642 28.018 23.4185C27.4934 23.7376 26.9916 24.2393 26.4219 24.8322C25.8522 25.4251 25.2816 26.2918 25.3273 26.9074C25.4639 26.7251 25.7835 26.1776 26.2396 25.9726C25.8973 26.3375 25.6466 27.1811 25.6238 28.0247C25.8973 28.1389 26.1254 28.2757 26.4903 27.8197C27.2888 26.7935 28.4767 25.5148 29.4103 25.0832C29.4621 24.8351 29.4635 24.3031 29.3418 24.0344C29.1762 23.6701 28.9598 23.4053 28.6118 23.0535C28.6118 22.5748 28.5433 21.7996 28.4749 21.0925C28.4522 20.7734 28.3607 20.3401 28.1326 20.0663C28.2695 20.1348 28.5206 20.2944 28.703 20.6592C28.7714 20.1348 28.4749 19.4734 28.2695 19.2C28.2468 19.3366 28.1557 19.5419 27.9957 19.7245C28.0187 19.4964 28.0074 18.9603 27.8932 18.4589C27.9159 18.0255 27.8248 17.1136 27.6651 16.5891C27.939 16.9082 28.3724 17.8887 28.4405 18.4816C28.5775 18.6412 28.8513 18.9603 28.9881 19.4167C29.5812 17.9345 29.4443 16.5891 28.9197 15.6083C28.7778 15.3391 28.3309 15.1224 28.0117 15.2136C28.4018 15.576 28.6005 16.4522 28.5548 17.4327C28.3494 16.9309 27.9347 15.8898 27.3459 15.3576C26.1591 15.1526 24.8588 14.2629 22.6465 14.8334C23.1026 14.9019 24.4026 15.3352 25.2468 16.0419C24.5168 15.6771 22.2131 15.4948 21.1181 15.4948C20.0232 15.4948 17.7194 15.6771 16.9898 16.0419C17.8336 15.3352 19.1336 14.9019 19.5897 14.8334C17.3775 14.2632 16.0782 15.1526 14.8911 15.3579C14.3022 15.8898 13.8876 16.9313 13.6822 17.433C13.6365 16.4526 13.8351 15.5763 14.2256 15.214C13.9064 15.1228 13.4584 15.3394 13.3172 15.6086C12.7926 16.5894 12.6557 17.9348 13.2488 19.4171C13.3857 18.9607 13.6595 18.6415 13.7964 18.4819C13.8649 17.8891 14.2979 16.9086 14.5719 16.5894C14.4122 17.1139 14.321 18.0259 14.3438 18.4592C14.2295 18.9607 14.2182 19.4968 14.2412 19.7248C14.0813 19.5423 13.9901 19.3369 13.9674 19.2004C13.762 19.4738 13.4655 20.1351 13.5339 20.6596C13.7166 20.2947 13.9674 20.1351 14.1043 20.0667C13.8763 20.3404 13.785 20.7738 13.762 21.0929C13.6936 21.8 13.6251 22.5752 13.6251 23.0539C13.2772 23.4057 13.0608 23.6705 12.8952 24.0347C12.7735 24.3021 12.7749 24.8351 12.827 25.0836C13.762 25.5169 14.9481 26.7939 15.7465 27.8201C16.1116 28.2761 16.3397 28.1393 16.6131 28.0251C16.5904 27.1815 16.3397 26.3378 15.9973 25.973C16.4535 26.178 16.773 26.7254 16.9096 26.9077C16.9554 26.2921 16.385 25.4255 15.8151 24.8325C15.245 24.2397 14.7428 23.7383 14.2189 23.4187C14.9715 23.4645 15.8459 23.9862 16.3059 24.4986C16.169 23.9514 15.9086 23.6985 15.7306 23.4737C16.3336 23.6883 17.4775 24.3993 17.5264 25.6992C17.3691 25.4752 17.1696 25.2841 16.9391 25.1365C17.1271 25.4241 17.1842 25.8134 17.2068 25.9046C17.3637 26.098 17.4877 26.3161 17.5736 26.5499C17.8524 26.1875 17.8804 25.4151 17.7478 25.0858C18.0546 25.3092 18.25 25.6435 18.4032 26.041C19.1006 25.9702 19.7351 26.112 20.1675 26.3896C18.9331 26.6336 18.3128 27.3726 17.9779 27.7839C18.0134 27.2471 18.3405 26.7453 18.3405 26.7453C18.0127 26.9265 17.7407 27.2612 17.6574 27.4634C17.6034 27.5928 17.3502 28.4882 17.3711 28.8995C17.5695 28.6719 17.7274 28.4121 17.8379 28.1311C17.8446 28.452 17.7471 28.9609 17.6634 29.1839C18.04 28.8074 18.2912 28.3683 18.4082 28.18C18.3727 28.6889 18.0667 29.7403 17.9758 29.9719C17.7527 30.2714 17.2994 31.3243 17.2576 31.5892C17.1529 31.2701 17.16 30.669 17.1866 30.5364C16.8798 31.1708 16.7404 32.1051 17.2009 32.4867C17.3193 31.9498 17.5772 31.3782 17.9677 31.0995C17.5563 32.0963 17.5005 33.1207 17.4797 33.6023C17.4587 34.0838 17.1171 35.1626 17.4867 35.6867C16.7358 35.0274 16.6872 33.982 16.9033 33.2019C16.6802 33.5509 16.5616 34.0806 16.5687 34.3366C16.4152 33.6048 16.5333 32.9739 16.6975 32.604C16.4464 32.9739 16.3073 33.2945 16.2793 33.5491C16.1293 32.8399 16.3524 32.1477 16.4361 31.8115C16.3524 31.597 16.2531 31.3984 16.274 31.2154C16.3421 30.6126 16.5042 29.924 16.6401 29.542C16.164 30.0963 15.505 30.5303 14.9925 30.1123C15.4214 30.0023 15.7143 29.474 15.8764 29.0715C15.2173 29.6466 14.4487 30.0705 13.7581 29.8977C13.0675 29.725 12.9161 28.7162 13.141 28.167C13.3538 29.0038 13.7897 29.1084 14.0092 29.1867C14.2288 29.2651 15.0868 29.4169 15.6253 28.7736C14.935 28.873 14.2498 28.6535 13.9464 28.4963C13.6432 28.3393 13.1516 27.8272 13.0573 27.1265C12.5816 27.4456 12.4898 29.8665 13.3747 30.3754C13.0555 30.4381 12.6756 30.175 12.5234 29.997C12.5589 30.5998 12.9732 31.0115 13.4389 31.2208C13.9046 31.43 14.2862 31.6285 14.5059 31.9264C14.4902 31.5239 14.2182 31.2154 14.0717 31.0796C14.3438 31.1264 14.5423 31.2991 14.6782 31.4403C14.6626 31.1474 14.4795 30.9225 14.3235 30.7711C14.7576 30.8914 14.9875 31.158 15.134 31.303C15.3695 30.8116 15.7671 30.6023 16.0651 30.4875C15.5837 31.0902 15.3433 32.0509 15.2805 32.5215C15.4742 32.119 15.7771 31.8313 15.997 31.7215C15.7671 32.3598 15.7133 33.3247 15.8664 34.0537C16.0548 34.953 15.8821 35.2877 15.9133 35.68C15.7303 35.0416 15.5526 34.7491 15.3812 34.5097C15.3344 35.2522 15.6168 35.6182 15.7735 36.0051C15.9303 36.392 15.8938 36.8625 15.8835 37.2075C16.2651 36.371 17.5186 36.1342 18.3695 36.7111C19.1226 36.6757 19.9022 37.304 21.1199 37.304C22.3376 37.304 23.1172 36.6763 23.8702 36.7111C24.7215 36.1327 25.9747 36.3696 26.3563 37.2075C26.346 36.8625 26.3091 36.392 26.4662 36.0051C26.6234 35.6182 26.9054 35.2522 26.8586 34.5097C26.6858 34.7501 26.5082 35.0416 26.3265 35.68C26.3577 35.2877 26.1846 34.953 26.3733 34.0537C26.5262 33.3247 26.473 32.3594 26.2428 31.7215C26.4623 31.8313 26.7656 32.119 26.9593 32.5215C26.8965 32.0509 26.656 31.0889 26.1747 30.4875C26.473 30.6027 26.8703 30.8119 27.1058 31.303C27.2523 31.1566 27.4821 30.8899 27.9163 30.7711C27.7595 30.9225 27.5765 31.1474 27.5616 31.4403C27.6974 31.2984 27.896 31.1264 28.1681 31.0796C28.0216 31.2154 27.7495 31.5239 27.7339 31.9264C27.9535 31.6285 28.3369 31.43 28.8009 31.2208C29.2648 31.0115 29.6794 30.5985 29.7164 29.997C29.5606 30.1768 29.1825 30.4399 28.8615 30.3771Z" fill="#DD123D"/>
<path d="M28.8615 30.3504C29.7482 29.8396 29.655 27.4093 29.1807 27.089C29.0864 27.7923 28.5948 28.3067 28.2915 28.4641C27.9882 28.6214 27.3012 28.8432 26.6127 28.7425C27.1512 29.3882 28.0092 29.2359 28.2287 29.1572C28.4483 29.0785 28.8825 28.9735 29.097 28.1334C29.3219 28.6848 29.1701 29.6997 28.4799 29.8709C27.7897 30.0422 27.0207 29.6189 26.3616 29.0415C26.5237 29.4459 26.8167 29.9759 27.2456 30.0862C26.733 30.506 26.075 30.0702 25.5979 29.5139C25.7338 29.8972 25.8962 30.59 25.964 31.1938C25.9849 31.3774 25.8856 31.5768 25.8019 31.7921C25.8856 32.1281 26.1087 32.8244 25.9587 33.5364C25.931 33.2808 25.7916 32.959 25.5405 32.5878C25.7044 32.959 25.8243 33.5923 25.6696 34.327C25.6764 34.0682 25.5579 33.5364 25.3347 33.1879C25.5508 33.971 25.5022 35.0219 24.7488 35.6865C25.1184 35.1618 24.7768 34.0768 24.7559 33.594C24.735 33.1114 24.6793 32.0822 24.2679 31.0816C24.658 31.3614 24.9162 31.9359 25.0347 32.4742C25.4958 32.0893 25.3539 31.1513 25.0489 30.5163C25.0765 30.6494 25.0843 31.2511 24.9779 31.5732C24.9361 31.3073 24.4813 30.2504 24.2597 29.9496C24.1692 29.7185 23.8621 28.6617 23.8273 28.1509C23.9458 28.3399 24.1969 28.7805 24.5722 29.1586C24.4885 28.9347 24.3909 28.4238 24.3977 28.1017C24.5085 28.3833 24.6666 28.6437 24.8651 28.8717C24.8861 28.4588 24.6328 27.5599 24.5789 27.43C24.4956 27.2271 24.2242 26.8911 23.8958 26.7092C23.8958 26.7092 24.2235 27.2129 24.2583 27.7518C23.9234 27.3388 23.303 26.597 22.0687 26.3521C22.5011 26.0723 23.1356 25.932 23.833 26.0021C23.9862 25.6031 24.1816 25.2674 24.4885 25.0432C24.3558 25.3725 24.382 26.1492 24.6626 26.513C24.7486 26.2783 24.8726 26.0595 25.0294 25.8652C25.0521 25.7736 25.1092 25.3828 25.2975 25.094C25.0668 25.2421 24.8671 25.434 24.7098 25.659C24.7594 24.349 25.9034 23.6353 26.5063 23.4199C26.329 23.6456 26.068 23.8994 25.931 24.4487C26.3922 23.9343 27.2654 23.4107 28.018 23.3648C27.4934 23.6851 26.9916 24.1888 26.4219 24.784C25.8522 25.3792 25.2816 26.2492 25.3273 26.8672C25.4639 26.6842 25.7835 26.1346 26.2396 25.9288C25.8973 26.2952 25.6466 27.142 25.6238 27.9889C25.8973 28.1035 26.1254 28.2409 26.4903 27.7832C27.2888 26.7529 28.4767 25.4693 29.4103 25.036C29.4621 24.7869 29.4635 24.2528 29.3418 23.9831C29.1762 23.6175 28.9598 23.3516 28.6118 22.9984C28.6118 22.5178 28.5433 21.7397 28.4749 21.0299C28.4522 20.7095 28.3607 20.2745 28.1326 19.9997C28.2695 20.0684 28.5206 20.2286 28.703 20.5949C28.7714 20.0684 28.4749 19.4045 28.2695 19.13C28.2468 19.2671 28.1557 19.4732 27.9957 19.6565C28.0187 19.4277 28.0074 18.8894 27.8932 18.3861C27.9159 17.9511 27.8248 17.0355 27.6651 16.5087C27.939 16.829 28.3724 17.8136 28.4405 18.4088C28.5775 18.569 28.8513 18.8894 28.9881 19.3475C29.3074 18.5431 29.4138 17.7791 29.3638 17.0914C29.1424 17.3495 28.8442 17.5648 28.5548 17.3558C28.3494 16.8521 27.9347 15.807 27.3459 15.2727C27.2796 15.2613 27.2133 15.2474 27.1462 15.2321C27.2214 15.5543 27.3066 16.0345 27.2423 16.3477C26.9941 16.2025 26.0818 15.4411 25.3624 15.058C24.8985 14.8114 24.0263 14.8911 23.4645 14.979C24.0284 15.1858 24.7257 15.5201 25.2486 15.9593C25.4738 16.1348 25.4912 16.3253 25.4912 16.3253L26.0098 16.5264C26.2268 16.6112 26.4457 16.6966 26.6404 16.8244C27.0739 17.1092 27.3285 17.5986 27.3637 18.1166C27.2127 17.7577 26.941 17.4635 26.5957 17.2854C27.0348 18.0329 27.1437 18.8591 27.0012 19.7149C26.9032 19.402 26.6922 19.2226 26.4117 19.0542C26.7809 20.1511 26.833 21.3305 26.5621 22.4559C26.5188 22.6339 26.4599 22.8898 26.3375 23.0255C25.8126 23.1704 25.2649 23.5142 24.9659 23.971C24.8205 24.0283 24.6055 24.0873 24.4597 24.145C24.5697 23.8795 24.6101 23.6676 24.8477 23.5075C24.2214 23.7118 23.5811 24.1661 23.2282 24.7239C23.2368 24.5437 23.1268 24.3579 23.197 24.2024C23.0806 24.3996 22.8271 24.4871 22.594 24.4808C22.3496 24.475 22.1148 24.3896 21.8743 24.3458C21.6339 24.3021 21.3689 24.3194 21.1185 24.369C20.8681 24.3194 20.6031 24.3021 20.3626 24.3458C20.1221 24.3896 19.8873 24.475 19.6429 24.4808C19.4113 24.4864 19.1577 24.3996 19.0399 24.2024C19.1109 24.3579 19.0002 24.5437 19.009 24.7239C18.6562 24.1661 18.0159 23.7118 17.3892 23.5075C17.6268 23.6676 17.6673 23.8795 17.7772 24.145C17.6314 24.0873 17.4169 24.0283 17.2711 23.971C16.972 23.5142 16.4244 23.1704 15.8995 23.0255C15.7771 22.8895 15.7182 22.6339 15.6749 22.4559C15.4042 21.3303 15.4567 20.1508 15.8264 19.0539C15.5458 19.2223 15.3348 19.4016 15.2368 19.7146C15.095 18.8602 15.2032 18.0322 15.6423 17.285C15.2972 17.4632 15.0254 17.7574 14.8743 18.1162C14.9098 17.5983 15.1641 17.1077 15.5976 16.824C15.7923 16.6962 16.0112 16.6104 16.2283 16.5261L16.7468 16.3239C16.7468 16.3239 16.7642 16.1335 16.9898 15.958C17.5123 15.5187 18.2095 15.1844 18.7735 14.9776C18.2117 14.8896 17.3395 14.8099 16.8756 15.0566C16.1551 15.4397 15.2439 16.2011 14.9957 16.3464C14.9314 16.033 15.0169 15.5528 15.0918 15.2307C15.0247 15.246 14.9584 15.2599 14.8921 15.2713C14.3033 15.8052 13.8886 16.8507 13.6833 17.3545C13.3939 17.5634 13.0956 17.348 12.8742 17.09C12.8225 17.7777 12.9292 18.5416 13.2499 19.3462C13.3867 18.888 13.6605 18.5676 13.7975 18.4074C13.8659 17.8122 14.299 16.8279 14.5729 16.5072C14.4133 17.0341 14.3221 17.9496 14.3448 18.3847C14.2306 18.888 14.2193 19.4262 14.2423 19.6551C14.0823 19.4718 13.9912 19.2657 13.9685 19.1287C13.7631 19.4031 13.4666 20.067 13.535 20.5935C13.7177 20.2272 13.9685 20.067 14.1053 19.9982C13.8773 20.2731 13.7861 20.7081 13.7631 21.0284C13.6947 21.7383 13.6261 22.5165 13.6261 22.997C13.2783 23.3501 13.0619 23.6161 12.8962 23.9816C12.7745 24.2501 12.776 24.7851 12.8281 25.0346C13.7631 25.4697 14.9492 26.7515 15.7476 27.7817C16.1127 28.2395 16.3407 28.1021 16.6142 27.9875C16.5915 27.1405 16.3407 26.2937 15.9984 25.9274C16.4545 26.1332 16.7741 26.6828 16.9107 26.8657C16.9564 26.2478 16.3861 25.3778 15.8161 24.7826C15.2461 24.1874 14.7438 23.684 14.22 23.3633C14.9726 23.4092 15.8469 23.9329 16.307 24.4472C16.1701 23.898 15.9097 23.6442 15.7317 23.4185C16.3346 23.6338 17.4786 24.3476 17.5275 25.6526C17.3702 25.4278 17.1706 25.2358 16.9401 25.0877C17.1282 25.3764 17.1852 25.7672 17.2079 25.8587C17.3648 26.0529 17.4888 26.2719 17.5747 26.5066C17.8535 26.1428 17.8815 25.3675 17.7489 25.0367C18.0556 25.261 18.2511 25.5967 18.4043 25.9958C19.1016 25.9246 19.7362 26.0669 20.1686 26.3457C18.9342 26.5906 18.3139 27.3324 17.979 27.7454C18.0145 27.2064 18.3415 26.7027 18.3415 26.7027C18.0138 26.8846 17.7418 27.2207 17.6584 27.4236C17.6045 27.5535 17.3512 28.4524 17.3721 28.8652C17.57 28.6373 17.7275 28.377 17.8379 28.0957C17.8446 28.4178 17.7471 28.9287 17.6634 29.1525C18.04 28.7745 18.2912 28.3339 18.4082 28.1448C18.3727 28.6556 18.0667 29.7111 17.9758 29.9435C17.7527 30.2444 17.2994 31.3012 17.2576 31.5671C17.1529 31.2468 17.16 30.6434 17.1866 30.5103C16.8798 31.1471 16.7404 32.0851 17.2009 32.4681C17.3193 31.9292 17.5772 31.3553 17.9677 31.0755C17.5563 32.0762 17.5005 33.1046 17.4797 33.588C17.4587 34.0714 17.1171 35.1543 17.4867 35.6805C16.7358 35.0187 16.6872 33.9692 16.9033 33.1861C16.6802 33.5364 16.5616 34.0682 16.5687 34.3253C16.4152 33.5905 16.5333 32.9573 16.6975 32.5859C16.4464 32.9573 16.3073 33.279 16.2793 33.5347C16.1293 32.8227 16.3524 32.1278 16.4361 31.7903C16.3524 31.5749 16.2531 31.3757 16.274 31.1919C16.3421 30.5868 16.5042 29.8955 16.6401 29.512C16.164 30.0685 15.505 30.5042 14.9925 30.0845C15.4214 29.9741 15.7143 29.4437 15.8764 29.0397C15.2173 29.6171 14.4487 30.0425 13.7581 29.8691C13.0675 29.6958 12.9161 28.683 13.141 28.1316C13.3538 28.9717 13.7897 29.0768 14.0092 29.1554C14.2288 29.234 15.0868 29.3864 15.6253 28.7407C14.935 28.8404 14.2498 28.62 13.9464 28.4623C13.6432 28.3046 13.1516 27.7906 13.0573 27.0872C12.5816 27.4075 12.4898 29.8378 13.3747 30.3487C13.0555 30.4116 12.6756 30.1476 12.5234 29.9688C12.5589 30.5739 12.9732 30.9873 13.4389 31.1973C13.9046 31.4073 14.2862 31.6067 14.5059 31.9057C14.4902 31.5017 14.2182 31.1919 14.0717 31.0556C14.3438 31.1026 14.5423 31.2759 14.6782 31.4177C14.6626 31.1236 14.4795 30.8979 14.3235 30.7459C14.7576 30.8666 14.9875 31.1343 15.134 31.2799C15.3695 30.7865 15.7671 30.5765 16.0651 30.4612C15.5837 31.0662 15.3433 32.0306 15.2805 32.503C15.4742 32.099 15.7771 31.8102 15.997 31.6999C15.7671 32.3407 15.7133 33.3093 15.8664 34.0412C16.0548 34.9439 15.8821 35.28 15.9133 35.6737C15.7303 35.0329 15.5526 34.7393 15.3812 34.499C15.3344 35.2444 15.6168 35.6118 15.7735 36.0001C15.9303 36.3885 15.8938 36.8608 15.8835 37.2072C16.2651 36.3675 17.5186 36.1297 18.3695 36.7088C19.1226 36.6733 19.9022 37.3041 21.1199 37.3041C22.3376 37.3041 23.1172 36.6739 23.8702 36.7088C24.7215 36.1282 25.9747 36.3661 26.3563 37.2072C26.346 36.8608 26.3091 36.3885 26.4662 36.0001C26.6234 35.6118 26.9054 35.2444 26.8586 34.499C26.6858 34.7403 26.5082 35.0329 26.3265 35.6737C26.3577 35.28 26.1846 34.9439 26.3733 34.0412C26.5262 33.3093 26.473 32.3404 26.2428 31.6999C26.4623 31.8102 26.7656 32.099 26.9593 32.503C26.8965 32.0306 26.656 31.0649 26.1747 30.4612C26.473 30.5768 26.8703 30.7869 27.1058 31.2799C27.2523 31.1328 27.4821 30.8651 27.9163 30.7459C27.7595 30.8979 27.5765 31.1236 27.5616 31.4177C27.6974 31.2753 27.896 31.1026 28.1681 31.0556C28.0216 31.1919 27.7495 31.5017 27.7339 31.9057C27.9535 31.6067 28.3369 31.4073 28.8009 31.1973C29.2648 30.9873 29.6798 30.5726 29.7164 29.9688C29.5606 30.1493 29.1825 30.4134 28.8615 30.3504ZM23.0817 36.4038C22.6561 36.3504 21.6339 36.569 21.1181 36.6886C20.6024 36.5683 19.5787 36.3497 19.1545 36.4038C18.5764 36.475 17.6368 34.9525 17.8896 33.8646C17.8187 32.5589 17.9982 31.2895 18.504 30.8908C18.5394 31.3621 18.7583 31.496 18.7583 31.496C18.7583 31.496 18.6112 30.0934 19.0094 29.4769C18.7653 29.8174 18.5821 30.1979 18.4678 30.6013C18.4678 30.6013 18.1067 30.4925 18.2872 29.8033C18.4678 29.1141 18.7597 28.94 18.7583 28.2655C18.7569 27.5909 19.2992 27.1922 19.2992 27.1922C19.1286 27.4617 19.112 27.7821 19.1361 28.1003C19.278 27.6998 19.5404 27.3948 19.8242 27.079C19.7451 27.2757 19.7143 27.4887 19.7345 27.6998C19.8153 27.4378 20.0746 27.2371 20.3076 27.0946L20.1977 27.388C20.4391 27.116 20.7633 26.9318 21.1199 26.864C21.4744 26.9323 21.7967 27.1156 22.0371 27.3859L21.9307 27.0925C22.1634 27.2349 22.4227 27.4371 22.5036 27.6977C22.5239 27.4865 22.4931 27.2735 22.4138 27.0769C22.6976 27.3926 22.9601 27.6977 23.102 28.0981C23.126 27.7799 23.1094 27.4595 22.9392 27.1901C22.9392 27.1901 23.4811 27.5891 23.4797 28.2634C23.4783 28.9376 23.7702 29.112 23.9508 29.8011C24.1313 30.4903 23.7702 30.5992 23.7702 30.5992C23.6559 30.1958 23.4727 29.8152 23.2286 29.4747C23.6269 30.0913 23.4797 31.4938 23.4797 31.4938C23.4797 31.4938 23.6978 31.3606 23.734 30.8886C24.2398 31.2873 24.4207 32.5568 24.3483 33.8625C24.5995 34.9525 23.6599 36.4764 23.0817 36.4038Z" fill="#930C28"/>
<path d="M18.037 35.8078C17.8704 35.248 17.8986 34.641 18.1162 34.1023C18.0897 34.7264 18.2228 35.3859 18.5094 35.927C18.4059 35.5336 18.4113 35.137 18.4839 34.7352C18.4909 35.2818 18.6892 35.7541 19.0137 36.1712C18.988 35.8459 19.0098 35.5182 19.0782 35.2002C19.1165 35.6261 19.2731 36.0045 19.5113 36.3452C19.5025 36.1299 19.5681 35.9124 19.6423 35.7128C19.6845 35.9421 19.7773 36.1568 19.9128 36.3383C19.9209 36.1773 19.963 36.0206 20.0357 35.8802C20.073 36.1049 20.1619 36.3158 20.2941 36.493C20.3113 36.375 20.3408 36.2597 20.3819 36.149C20.5071 36.4752 20.6738 36.7806 20.877 37.0564C20.1715 37.079 19.4841 36.825 18.8158 36.5742C18.6054 36.4952 18.3867 36.4107 18.2315 36.2367C18.1287 36.1212 18.0833 35.9628 18.037 35.8078Z" fill="#930C28"/>
<path d="M23.965 35.8078C24.1317 35.248 24.1035 34.641 23.8857 34.1023C23.9122 34.7264 23.7791 35.3859 23.4923 35.927C23.5959 35.5336 23.5902 35.137 23.5179 34.7352C23.5108 35.2818 23.3125 35.7541 22.9877 36.1712C23.0134 35.8459 22.9917 35.5182 22.9232 35.2002C22.8849 35.6261 22.7282 36.0045 22.4899 36.3452C22.4986 36.1299 22.433 35.9124 22.3588 35.7128C22.3171 35.9419 22.2248 36.1566 22.0898 36.3383C22.0817 36.1773 22.0397 36.0206 21.9668 35.8802C21.9295 36.1049 21.8406 36.3158 21.7082 36.493C21.691 36.375 21.6616 36.2597 21.6205 36.149C21.4951 36.4752 21.3284 36.7806 21.125 37.0564C21.831 37.079 22.5188 36.825 23.1874 36.5742C23.3979 36.4952 23.6167 36.4107 23.7721 36.2367C23.8739 36.1212 23.9192 35.9628 23.965 35.8078Z" fill="#930C28"/>
<path d="M28.4478 26.467C27.827 26.7953 27.0505 27.7703 26.7734 28.1911C27.6495 28.1706 28.1917 27.9625 28.3259 27.6984C28.5034 27.3496 28.5309 26.8311 28.4478 26.467Z" fill="white"/>
<path d="M26.8516 22.5268C27.6026 21.6309 27.7176 19.8876 27.1647 18.5862C27.2481 19.503 27.2167 20.4039 27.102 20.8143C27.0497 20.525 26.888 20.2868 26.7734 20.1161C27.0341 21.3002 26.7267 21.7821 26.8516 22.5268Z" fill="black"/>
<path d="M22.2312 41.6091C22.1465 41.1803 22.4447 39.9085 23.3307 39.3012C23.0958 39.296 22.4078 39.445 21.9962 39.7321C22.0423 39.5604 22.1284 39.4031 22.2471 39.2739C21.9431 39.3454 21.6654 39.5277 21.4092 39.8591C21.4092 39.8591 21.3933 39.5386 21.5482 39.3454C21.317 39.4209 21.1208 39.5821 20.9974 39.7981C20.8739 39.5821 20.6778 39.4209 20.4466 39.3454C20.6014 39.5386 20.5855 39.8591 20.5855 39.8591C20.3293 39.5277 20.0517 39.3454 19.7477 39.2739C19.8664 39.4031 19.9525 39.5604 19.9984 39.7321C19.587 39.445 18.899 39.296 18.6641 39.3012C19.55 39.9085 19.8483 41.1803 19.7636 41.6091C19.6727 42.0671 19.2298 42.1611 18.9674 42.4757C19.4317 42.3259 20.3141 42.2218 20.9963 42.2218C21.6785 42.2218 22.5608 42.3267 23.0252 42.4757C22.765 42.1611 22.322 42.0671 22.2312 41.6091Z" fill="black"/>
<path d="M23.1571 40.0059C23.6563 39.4126 24.2769 39.0877 24.6294 39.2113C25.0412 39.2007 25.4165 39.0206 25.5411 38.7815C25.5169 39.2279 25.2757 39.5097 24.8909 39.7139C24.8696 40.0543 24.663 40.5092 24.308 40.9309C23.752 41.5914 22.9964 41.8842 22.7258 41.6651C22.4553 41.4456 22.6009 40.6667 23.1571 40.0059Z" fill="black"/>
<path d="M29.7188 15.3351C33.1399 15.3748 35.3587 15.0797 36.3765 13.9062C36.5645 14.0043 36.7631 14.2161 36.8152 14.3683C37.0552 16.3891 35.5966 17.308 34.915 17.6713C33.8883 18.218 31.7513 18.5368 30.714 18.2037C32.8028 18.1963 33.6172 17.8994 34.3199 17.6385C35.0227 17.3777 35.9418 16.6463 36.1854 16.0377C34.9324 17.4285 32.7745 17.7324 31.0553 17.4429C32.4545 17.4797 33.4915 17.2547 34.1599 16.8925C32.1202 17.3198 30.6726 16.7476 30.0388 16.3637C30.0041 15.9872 29.865 15.5451 29.7188 15.3351Z" fill="white"/>
<path d="M33.2179 19.5709C35.9754 19.0701 37.7381 17.9226 38.0179 16.2325C38.2977 14.5425 37.2213 13.4148 36.328 12.8216C34.7267 11.758 31.7611 9.70253 32.5541 5.03979C33.7361 8.0959 37.1419 8.7482 39.4902 11.3767C41.2761 13.3763 40.47 16.0553 39.209 16.8689C39.6136 16.0397 39.5408 14.3865 39.261 13.7396C39.6445 14.1672 39.9036 15.0224 39.8519 15.3981C40.2035 14.4594 39.7792 13.3848 39.3024 12.7901C38.0063 11.1107 36.6588 10.9232 35.145 9.49381C35.3834 10.2763 36.8764 11.33 37.1563 11.7888C35.311 10.8815 33.6263 9.54622 33.1753 7.96574C33.3307 9.65049 34.9412 11.1796 36.7211 12.3105C38.6897 13.5624 38.9498 15.4504 38.5663 16.5456C38.1307 17.79 36.6493 19.3725 33.2179 19.5709Z" fill="white"/>
<path d="M29.7188 21.9686C29.9434 21.5541 30.0735 21.0079 30.1049 20.8025C30.3525 20.9132 30.6051 21.0132 30.7898 20.9975C30.6795 21.1083 30.5687 21.1504 30.3897 21.1873C30.8216 21.303 31.7012 20.9132 32.9978 21.0397C35.0996 21.3084 36.19 23.1733 38.5609 23.1415C37.8128 24.4009 35.7948 25.5124 34.1407 25.7021C32.4865 25.8918 31.2082 24.9876 31.2082 24.9876C31.454 24.8472 31.5655 24.6575 31.5944 24.5231C31.2575 24.7757 30.6112 24.8954 30.2318 24.7968C30.2956 24.6833 30.3272 24.5546 30.3232 24.4245C30.7877 24.481 31.0324 24.2348 31.7352 24.3888C32.438 24.5428 33.4501 24.5188 33.8788 24.3466C32.7759 24.2273 32.2211 23.8972 31.9752 23.5671C31.8138 23.3634 31.5466 23.4334 31.2657 23.4055C31.5187 22.9911 32.3161 22.805 32.9131 22.8961C32.5243 22.9427 32.1497 23.0707 31.8138 23.272C32.5512 23.3434 33.3836 22.9558 34.4197 23.3141C33.8649 23.2859 33.4011 23.4213 33.1903 23.5106C34.0192 23.4545 34.6023 23.5528 34.7981 23.6178C34.468 23.6892 34.4186 23.6953 34.1868 23.7021C35.374 23.934 36.6102 23.8847 37.3408 23.5688C35.3265 23.6046 34.2361 21.9672 32.6344 21.9322C33.1192 21.8129 33.6741 21.7917 34.0814 21.9179C33.5194 21.4648 32.3604 21.6159 31.9735 21.7075C31.5865 21.7989 30.6387 22.2412 30.3657 22.452C30.5335 22.1323 30.8054 21.8793 31.1364 21.7349C30.6308 21.8353 30.3464 22.0922 30.1199 22.3463C30.2629 22.0408 30.4622 21.8142 30.573 21.7299C30.2357 21.8457 29.9406 22.1669 29.8141 22.3516C29.9724 21.9193 30.1461 21.7246 30.2622 21.6084C29.9785 21.7246 29.8502 21.865 29.7188 21.9686Z" fill="#DD123D"/>
<path d="M30.2109 24.8409C30.2757 24.7335 30.3078 24.6115 30.3038 24.4883C30.7748 24.5418 31.0231 24.3086 31.7359 24.4544C32.4487 24.6004 33.4753 24.5777 33.9102 24.4145C32.7915 24.3015 32.2287 23.9888 31.9794 23.6761C31.8157 23.4832 31.5445 23.5495 31.2598 23.5231C31.5163 23.1306 32.3251 22.9542 32.9307 23.0405C32.5363 23.0846 32.1563 23.206 31.8157 23.3965C32.5636 23.4642 33.4079 23.0971 34.4589 23.4365C33.896 23.4098 33.4257 23.538 33.2119 23.6226C34.0526 23.5694 34.644 23.6625 34.8426 23.7241C34.5077 23.7918 34.4577 23.7976 34.2226 23.804C35.4054 24.0199 36.636 23.9786 37.3815 23.693C37.3957 23.6883 37.4092 23.6832 37.4217 23.6778L37.825 23.6148C37.825 23.6148 36.9329 24.182 36.4313 24.1902C36.8774 24.3489 37.0941 24.2808 37.0941 24.2808C37.0941 24.2808 35.2525 25.8115 33.2271 25.417C33.5739 25.335 33.7094 25.1729 33.7094 25.1729C33.7094 25.1729 32.7886 25.2846 31.9765 24.9052L32.3556 25.3114C32.3556 25.3114 32.0656 25.307 31.7156 25.2914C31.537 25.2149 31.3652 25.1254 31.2017 25.0237C31.4511 24.8907 31.5641 24.711 31.5935 24.5837C31.2514 24.821 30.5958 24.9344 30.2109 24.8409Z" fill="#930C28"/>
<path d="M36.3546 24.2954C35.8499 24.1662 35.3196 24.3328 34.9901 24.5797C34.7165 24.7847 34.2034 25.1245 33.8984 25.2346C34.9014 25.2696 35.6386 24.4501 36.3546 24.2954Z" fill="black"/>
<path d="M35.3648 24.2602C34.8341 24.2033 34.4239 24.4076 34.0433 24.5665C33.6626 24.7255 32.6919 24.8208 32.1719 24.717C32.9813 25.0452 33.6917 25.0785 34.1971 24.8076C34.6943 24.5383 35.0177 24.3072 35.3648 24.2602Z" fill="black"/>
<path d="M21.0018 42.9688C20.2499 42.9688 19.2764 43.1652 18.9141 43.2555C19.6494 43.639 20.6246 43.7078 21.0018 43.7078C21.3789 43.7078 22.3541 43.6398 23.0895 43.2555C22.7271 43.166 21.7536 42.9688 21.0018 42.9688Z" fill="#930C28"/>
<path d="M15.1509 22.5268C14.3998 21.6309 14.2849 19.8876 14.8378 18.5862C14.7543 19.503 14.7857 20.4039 14.9004 20.8143C14.9528 20.525 15.1127 20.2868 15.229 20.1161C14.9683 21.3002 15.2761 21.7821 15.1509 22.5268Z" fill="black"/>
<path d="M15.745 20.72C15.6563 21.3894 15.809 22.0678 16.1781 22.6438C16.1234 22.439 16.114 22.2077 16.1169 21.9963C16.2325 22.3497 16.4534 22.5893 16.7488 22.8295C17.1348 22.873 17.5508 23.042 17.8148 23.3122C17.7447 23.0452 17.5804 22.8093 17.3492 22.6441C17.9529 22.8493 18.3624 23.2209 18.6661 23.7584C18.4875 23.151 18.237 22.5705 17.6923 22.2115C17.8084 22.214 17.9229 22.2396 18.0281 22.2866C18.1332 22.3335 18.227 22.401 18.3033 22.4844C18.1507 22.2526 17.9512 22.0519 17.7164 21.8942C17.5767 21.7983 17.4246 21.7206 17.2847 21.6244C16.8151 21.306 16.4789 20.7515 16.5942 20.2137C16.5067 20.4529 16.4312 20.6748 16.4713 20.9251C16.1526 20.2873 16.1523 19.4738 16.4629 18.8325C16.1009 19.1919 15.8292 19.6044 15.7188 20.0911C15.7702 19.9578 15.8817 19.8637 16.0046 19.7831C15.9465 20.1763 15.9721 20.5766 16.0797 20.9602C16.1196 21.1311 16.1915 21.2937 16.2919 21.4404C16.0193 21.276 15.8235 21.018 15.745 20.72Z" fill="#930C28"/>
<path d="M26.2549 20.72C26.3436 21.3894 26.1909 22.0678 25.8218 22.6438C25.8764 22.439 25.886 22.2077 25.8826 21.9963C25.7674 22.3497 25.5465 22.5893 25.2512 22.8295C24.8651 22.873 24.4509 23.042 24.1851 23.3122C24.2557 23.0449 24.4209 22.8089 24.6529 22.6441C24.0491 22.8493 23.6396 23.2209 23.3359 23.7584C23.5146 23.151 23.7651 22.5705 24.3098 22.2115C24.1935 22.214 24.0793 22.2395 23.974 22.2865C23.8688 22.3335 23.775 22.4009 23.6988 22.4844C23.8513 22.2526 24.0509 22.0519 24.2857 21.8942C24.4254 21.7983 24.5774 21.7206 24.7174 21.6244C25.1867 21.306 25.5232 20.7515 25.4079 20.2137C25.4955 20.4529 25.5706 20.6748 25.5308 20.9251C25.8495 20.2873 25.8499 19.4738 25.5392 18.8325C25.9013 19.1919 26.1729 19.6044 26.2833 20.0911C26.2319 19.9578 26.1204 19.8637 25.9975 19.7831C26.0555 20.1764 26.0299 20.5766 25.922 20.9602C25.8821 21.1316 25.8098 21.2947 25.7087 21.4414C25.9813 21.2766 26.1769 21.0183 26.2549 20.72Z" fill="#930C28"/>
<path d="M11.9626 16.4499C11.9758 16.3167 11.9994 16.1847 12.0334 16.0551C10.9708 16.224 8.93442 16.5003 8.00436 16.2179C8.59478 16.6999 9.10226 16.7411 9.81411 16.7799C8.45203 16.9731 7.03639 16.4979 6.16618 15.4364C6.38894 15.9913 6.79872 16.5543 7.31896 16.8525C6.40736 16.4968 5.71246 15.6913 5.37779 14.7755C5.33244 14.6524 5.29472 14.5266 5.2648 14.3989C5.23059 14.4417 5.20289 14.4892 5.18266 14.54C4.94249 16.4735 6.4017 17.3527 7.08347 17.7003C8.11057 18.2234 10.2484 18.5283 11.2861 18.2097C9.19651 18.2026 8.38188 17.9185 7.67882 17.6689C6.97581 17.4193 6.05601 16.7203 5.81379 16.1379C7.0672 17.4687 9.22587 17.7595 10.9457 17.4824C9.54604 17.5177 8.50869 17.3023 7.84032 16.9558C9.88111 17.3647 11.329 16.8172 11.9626 16.4499Z" fill="#AAAAAA"/>
<path d="M30.0396 16.4499C30.0264 16.3167 30.0028 16.1847 29.9688 16.0551C31.0313 16.224 33.0678 16.5003 33.9982 16.2179C33.4075 16.6999 32.8985 16.7411 32.188 16.7799C33.5501 16.9731 34.9658 16.4979 35.836 15.4364C35.6132 15.9913 35.2034 16.5543 34.6832 16.8525C35.5948 16.4968 36.2897 15.6913 36.6244 14.7755C36.6697 14.6524 36.7074 14.5266 36.7374 14.3989C36.7716 14.4417 36.7993 14.4892 36.8195 14.54C37.0596 16.4735 35.6005 17.3527 34.9187 17.7003C33.8916 18.2234 31.7538 18.5283 30.7161 18.2097C32.8057 18.2026 33.6203 17.9185 34.3233 17.6689C35.0264 17.4193 35.9458 16.7196 36.1895 16.1373C34.936 17.468 32.7774 17.7588 31.0575 17.4817C32.4572 17.517 33.4946 17.3016 34.1632 16.955C32.1218 17.3647 30.6736 16.8172 30.0396 16.4499Z" fill="#AAAAAA"/>
<path d="M13.8666 23.7581C14.384 24.1398 14.828 24.6229 15.1745 25.1813C15.1451 24.9732 15.0914 24.7697 15.0146 24.5755C15.5236 24.9703 15.9328 25.449 16.213 26.048C15.9852 25.8199 15.7403 25.6525 15.4329 25.5879C15.7316 26.012 15.8881 26.4821 15.9919 26.9998C15.8753 26.7756 15.6993 26.5722 15.5186 26.404C15.6292 26.654 15.6683 26.9329 15.6311 27.2062C15.1312 26.1678 14.321 25.3346 13.3271 24.8367C13.5623 24.8503 13.7608 24.8567 13.9711 24.966C13.7661 24.73 13.5282 24.5287 13.2656 24.3692C13.5372 24.3229 13.8157 24.3745 14.0565 24.5157C13.8703 24.2801 13.611 24.1148 13.353 23.9751C13.596 23.9998 13.8331 24.0689 14.0538 24.1796C13.9734 24.0353 13.9849 23.8703 13.8666 23.7581Z" fill="#DD123D"/>
<path d="M28.0888 23.7581C27.5282 24.1398 27.0472 24.6228 26.6719 25.1813C26.7037 24.9732 26.762 24.7697 26.8451 24.5755C26.2937 24.9703 25.8504 25.449 25.5469 26.048C25.7933 25.8199 26.059 25.6525 26.3916 25.5879C26.0684 26.012 25.8988 26.4821 25.7864 26.9998C25.9127 26.7756 26.1034 26.5722 26.2992 26.404C26.1793 26.654 26.1369 26.9329 26.1772 27.2062C26.7188 26.168 27.5964 25.3348 28.6729 24.8367C28.4181 24.8503 28.2034 24.8567 27.9756 24.966C28.1976 24.73 28.4554 24.5287 28.7398 24.3692C28.4454 24.323 28.1437 24.3746 27.8828 24.5157C28.0848 24.2801 28.3658 24.1148 28.6471 23.9751C28.3838 23.9998 28.127 24.0689 27.8878 24.1796C27.973 24.0353 27.9603 23.8703 28.0888 23.7581Z" fill="#DD123D"/>
<path d="M13.2929 29.9736C13.8563 30.2222 14.5708 30.0955 15.0086 29.6692C14.8786 29.875 14.7579 30.0682 14.5909 30.2466C14.7796 30.3635 15.0055 30.4091 15.2262 30.3747C15.1114 30.5324 14.9922 30.7007 14.8776 30.8583C14.6017 30.5561 14.2008 30.4426 13.7865 30.4466C13.9321 30.583 14.0611 30.7353 14.1709 30.9006C13.8204 30.6955 13.4238 30.5771 13.0156 30.5557L13.4211 30.4156C13.291 30.3145 13.2731 30.1342 13.2929 29.9736Z" fill="#DD123D"/>
<path d="M28.7066 29.9736C28.143 30.2222 27.4289 30.0955 26.9906 29.6692C27.1206 29.875 27.2413 30.0682 27.4088 30.2466C27.22 30.3635 26.9941 30.4089 26.7734 30.3747C26.8882 30.5324 27.0073 30.7007 27.1225 30.8583C27.3979 30.5561 27.7989 30.4426 28.2133 30.4466C28.0677 30.583 27.9386 30.7353 27.8288 30.9006C28.1793 30.6955 28.5758 30.5771 28.984 30.5557L28.5788 30.4156C28.7085 30.3145 28.7264 30.1342 28.7066 29.9736Z" fill="#DD123D"/>
<path d="M19.5602 38.5261C18.9407 38.0311 18.1847 37.7075 17.3779 37.592C17.3991 37.9411 17.5174 38.2655 17.8314 38.4583C17.6315 38.4907 17.3779 38.4208 17.1953 38.3409C17.4396 38.6227 17.8455 38.7231 18.2237 38.8077L19.1872 39.0232C19.0825 38.8814 18.9778 38.7702 18.8166 38.6851C19.2588 38.7855 19.6775 38.9328 20.04 39.1889C20.0195 39.0348 19.953 38.889 19.8481 38.7683C20.1421 38.8565 20.4083 39.0105 20.6235 39.2169C20.6295 39.1142 20.7523 39.0166 20.7579 38.914C20.8567 39.0254 20.9429 39.1461 21.015 39.2741C21.3441 39.0435 21.7028 38.8517 22.0825 38.7033C22.0037 38.8116 21.9247 38.9206 21.8456 39.0303C22.0898 38.7644 22.5945 38.6903 22.9528 38.585C22.8128 38.6856 22.7116 38.8259 22.6646 38.9848C22.9098 38.8377 23.1818 38.7337 23.4672 38.6777L23.2208 38.9985C23.5012 38.8424 23.8132 38.742 24.1372 38.7036C24.2639 38.689 24.3968 38.6825 24.5075 38.623C24.7273 38.5053 24.7758 38.235 24.8013 37.9999C24.8187 37.8374 24.8202 37.6423 24.675 37.55C23.5868 37.6086 22.6115 38.1309 21.6861 38.6679C21.7988 38.4787 21.9268 38.2222 22.0396 38.0331C21.379 38.3477 20.5234 38.3051 19.8813 37.9587C20.0725 38.1455 20.2184 38.4137 20.3112 38.6559C20.1371 38.5906 19.9562 38.5425 19.7714 38.5122C19.7234 38.5016 19.674 38.4978 19.6248 38.5009C19.602 38.5061 19.5803 38.5147 19.5602 38.5261Z" fill="#DD123D"/>
</g>
<defs>
<clipPath id="clip0_3032_10201">
<rect width="42" height="49" fill="white"/>
</clipPath>
</defs>
</svg>
