<svg width="136" height="24" viewBox="0 0 136 24" fill="none" xmlns="http://www.w3.org/2000/svg">
<g clip-path="url(#clip0_3032_12669)">
<path d="M0 16.678V8.40915H2.69407C3.70755 8.40915 4.37465 8.44747 4.68255 8.53697C5.15722 8.66479 5.55492 8.9332 5.87564 9.3549C6.19636 9.76391 6.36314 10.3007 6.36314 10.9652C6.36314 11.4765 6.27339 11.8982 6.08095 12.2433C5.90134 12.5883 5.65761 12.8567 5.37537 13.0613C5.09313 13.253 4.79799 13.3807 4.50292 13.4447C4.10523 13.5213 3.52795 13.5596 2.77103 13.5596H1.6806V16.678H0ZM1.6806 9.81501V12.1666H2.60425C3.25853 12.1666 3.70759 12.1282 3.92568 12.0387C4.14377 11.9493 4.32335 11.8215 4.45164 11.6298C4.57993 11.4509 4.6441 11.2336 4.6441 10.9908C4.6441 10.684 4.55427 10.4413 4.37466 10.2496C4.19506 10.0579 3.97701 9.92998 3.69477 9.87888C3.4895 9.84056 3.0918 9.82778 2.48883 9.82778H1.6806V9.81501ZM18.6534 16.678H16.8317L16.1133 14.7993H12.7905L12.1106 16.678H10.3274L13.5603 8.40915H15.3306L18.6534 16.678ZM15.5616 13.4063L14.4198 10.3391L13.3037 13.4063H15.5616ZM24.9524 16.678V13.2018L21.9119 8.40915H23.8748L25.8248 11.681L27.7364 8.40915H29.6736L26.6203 13.2146V16.678H24.9524ZM34.3689 13.9942L35.9983 13.8408C36.1009 14.3904 36.2933 14.7866 36.5884 15.0422C36.8963 15.2978 37.2939 15.4256 37.8071 15.4256C38.3459 15.4256 38.7565 15.3105 39.0259 15.0933C39.2953 14.8632 39.4364 14.5949 39.4364 14.2881C39.4364 14.0964 39.3722 13.9302 39.2568 13.7896C39.1413 13.649 38.9489 13.5341 38.6538 13.4319C38.4614 13.3679 38.0124 13.2401 37.3067 13.074C36.4088 12.8567 35.7801 12.5756 35.4209 12.2561C34.9078 11.796 34.6512 11.2463 34.6512 10.5945C34.6512 10.1728 34.7667 9.77669 35.0104 9.41878C35.2542 9.04817 35.6005 8.76706 36.0496 8.57537C36.4986 8.3836 37.0502 8.28133 37.6917 8.28133C38.7309 8.28133 39.5134 8.51142 40.0393 8.95875C40.5653 9.41885 40.8476 10.0195 40.8733 10.7863L39.1926 10.863C39.1157 10.4413 38.9618 10.1345 38.7309 9.94283C38.4999 9.75114 38.1407 9.66164 37.666 9.66164C37.1785 9.66164 36.7936 9.76383 36.5242 9.95552C36.3446 10.0833 36.2548 10.2496 36.2548 10.4668C36.2548 10.6585 36.3317 10.8247 36.4985 10.9652C36.7038 11.1441 37.217 11.3231 38.038 11.5148C38.8591 11.7065 39.4492 11.911 39.847 12.1154C40.2447 12.3199 40.5397 12.6012 40.7706 12.959C40.9887 13.3168 41.1042 13.7513 41.1042 14.2753C41.1042 14.7482 40.9759 15.1956 40.7065 15.6045C40.4371 16.0135 40.0651 16.3202 39.5904 16.5247C39.1029 16.7292 38.4999 16.8186 37.7814 16.8186C36.7295 16.8186 35.9213 16.5758 35.3696 16.1029C34.818 15.6173 34.4844 14.9144 34.3689 13.9942ZM46.826 16.678V8.40915H52.9839V9.80223H48.5065V11.6298H52.676V13.0229H48.5065V15.2722H53.1378V16.6652H46.826V16.678ZM58.898 16.678V8.4731H60.5787V15.285H64.748V16.678H58.898ZM70.2261 16.678V8.40915H76.384V9.80223H71.9067V11.6298H76.0761V13.0229H71.9067V15.2722H76.5379V16.6652H70.2261V16.678ZM87.5708 13.6363L89.2005 14.1476C88.9564 15.055 88.5329 15.7195 87.9555 16.1669C87.3788 16.6014 86.6475 16.8186 85.7492 16.8186C84.6456 16.8186 83.7348 16.4481 83.0292 15.694C82.3235 14.9399 81.9645 13.9175 81.9645 12.6139C81.9645 11.2336 82.3235 10.1728 83.0292 9.406C83.748 8.63916 84.6845 8.25586 85.8393 8.25586C86.8527 8.25586 87.6734 8.54974 88.3153 9.15036C88.6868 9.50827 88.9697 10.0067 89.1616 10.6713L87.5071 11.0674C87.4045 10.6329 87.1985 10.3007 86.8908 10.0578C86.583 9.81501 86.1984 9.68719 85.7624 9.68719C85.1461 9.68719 84.6456 9.90443 84.2609 10.3518C83.8763 10.7863 83.6835 11.5021 83.6835 12.4861C83.6835 13.5341 83.8763 14.2754 84.2485 14.7227C84.62 15.17 85.1205 15.3872 85.7235 15.3872C86.1727 15.3872 86.5574 15.2467 86.8784 14.9655C87.1985 14.6844 87.4301 14.2497 87.5708 13.6363ZM96.7947 16.678V9.80223H94.3319V8.40915H100.926V9.80223H98.4624V16.678H96.7947ZM106.25 16.678V8.40915H107.93V16.678H106.25Z" fill="white"/>
<path d="M136.004 11.9369C136.004 5.34221 130.642 0 124.022 0C117.401 0 112.039 5.34221 112.039 11.9369C112.039 18.5316 117.401 23.8737 124.022 23.8737C130.628 23.8737 136.004 18.5316 136.004 11.9369Z" fill="#3831FE"/>
<path d="M114.82 12.6005C114.82 11.757 114.949 11.0542 115.205 10.479C115.398 10.0573 115.654 9.67385 115.975 9.34156C116.309 9.00928 116.668 8.75364 117.052 8.60027C117.566 8.38303 118.169 8.26807 118.836 8.26807C120.054 8.26807 121.042 8.65137 121.773 9.40543C122.505 10.1595 122.877 11.2075 122.877 12.5622C122.877 13.8914 122.518 14.9394 121.787 15.6934C121.055 16.4475 120.08 16.818 118.861 16.818C117.63 16.818 116.642 16.4475 115.911 15.6934C115.179 14.9394 114.82 13.9169 114.82 12.6005ZM116.539 12.5367C116.539 13.4696 116.758 14.1853 117.194 14.671C117.63 15.1566 118.181 15.3866 118.849 15.3866C119.516 15.3866 120.068 15.1438 120.491 14.671C120.927 14.1853 121.132 13.4696 121.132 12.511C121.132 11.5653 120.927 10.8625 120.504 10.3896C120.093 9.92949 119.541 9.68662 118.849 9.68662C118.156 9.68662 117.604 9.92949 117.18 10.4024C116.758 10.8752 116.539 11.5909 116.539 12.5367ZM125.469 16.6774V8.40866H127.098L130.498 13.9297V8.40866H132.05V16.6774H130.369L127.021 11.2842V16.6774H125.469Z" fill="white"/>
</g>
<defs>
<clipPath id="clip0_3032_12669">
<rect width="136" height="24" fill="white"/>
</clipPath>
</defs>
</svg>
