<svg width="71" height="30" viewBox="0 0 71 30" fill="none" xmlns="http://www.w3.org/2000/svg">
<path fill-rule="evenodd" clip-rule="evenodd" d="M70.77 15.3061C70.77 10.2436 68.3324 6.24902 63.6735 6.24902C58.9948 6.24902 56.1641 10.2436 56.1641 15.2666C56.1641 21.2189 59.5059 24.2248 64.3025 24.2248C66.6418 24.2248 68.4111 23.6908 69.7478 22.9394V18.9843C68.4111 19.6567 66.8777 20.0719 64.9316 20.0719C63.0247 20.0719 61.3341 19.3996 61.1179 17.0661H70.7307C70.7307 16.809 70.77 15.7807 70.77 15.3061ZM61.0589 13.4275C61.0589 11.1928 62.4153 10.2634 63.6538 10.2634C64.8529 10.2634 66.1307 11.1928 66.1307 13.4275H61.0589Z" fill="#635BFF"/>
<path fill-rule="evenodd" clip-rule="evenodd" d="M48.574 6.24902C46.6475 6.24902 45.409 7.15869 44.721 7.7915L44.4654 6.56543H40.1406V29.6234L45.0552 28.5753L45.0748 22.9789C45.7825 23.4931 46.8244 24.2248 48.5543 24.2248C52.0731 24.2248 55.2774 21.3771 55.2774 15.1084C55.2577 9.37352 52.0141 6.24902 48.574 6.24902ZM47.3945 19.8742C46.2346 19.8742 45.5466 19.4589 45.0748 18.9448L45.0552 11.6081C45.5663 11.0346 46.274 10.6391 47.3945 10.6391C49.1834 10.6391 50.4218 12.6562 50.4218 15.2468C50.4218 17.8967 49.203 19.8742 47.3945 19.8742Z" fill="#635BFF"/>
<path fill-rule="evenodd" clip-rule="evenodd" d="M33.3828 5.08225L38.317 4.01438V0L33.3828 1.04809V5.08225Z" fill="#635BFF"/>
<path d="M38.317 6.58496H33.3828V23.8883H38.317V6.58496Z" fill="#635BFF"/>
<path fill-rule="evenodd" clip-rule="evenodd" d="M28.0919 8.04864L27.7774 6.58527H23.5312V23.8886H28.4458V12.1619C29.6056 10.6392 31.5714 10.9161 32.1808 11.1336V6.58527C31.5518 6.34796 29.2518 5.91291 28.0919 8.04864Z" fill="#635BFF"/>
<path fill-rule="evenodd" clip-rule="evenodd" d="M18.2615 2.29395L13.465 3.32226L13.4453 19.1623C13.4453 22.089 15.6274 24.2445 18.5368 24.2445C20.1487 24.2445 21.3282 23.9479 21.9769 23.5919V19.5775C21.3479 19.8346 18.2419 20.7443 18.2419 17.8175V10.7973H21.9769V6.58518H18.2419L18.2615 2.29395Z" fill="#635BFF"/>
<path fill-rule="evenodd" clip-rule="evenodd" d="M4.97351 11.6081C4.97351 10.8369 5.60256 10.5403 6.64444 10.5403C8.13846 10.5403 10.0256 10.9951 11.5197 11.8059V7.15869C9.88803 6.5061 8.27607 6.24902 6.64444 6.24902C2.65385 6.24902 0 8.3452 0 11.8454C0 17.3034 7.47009 16.4333 7.47009 18.7866C7.47009 19.6962 6.68376 19.9928 5.58291 19.9928C3.95128 19.9928 1.86752 19.3205 0.216239 18.4108V23.1173C2.04444 23.9083 3.89231 24.2445 5.58291 24.2445C9.67179 24.2445 12.4829 22.2077 12.4829 18.6679C12.4632 12.7749 4.97351 13.823 4.97351 11.6081Z" fill="#635BFF"/>
</svg>
