<svg width="52" height="50" viewBox="0 0 52 50" fill="none" xmlns="http://www.w3.org/2000/svg">
<mask id="mask0_3032_12724" style="mask-type:luminance" maskUnits="userSpaceOnUse" x="13" y="2" width="26" height="24">
<path d="M38.4311 2.35107H13.1172V25.3196H38.4311V2.35107Z" fill="white"/>
</mask>
<g mask="url(#mask0_3032_12724)">
<path fill-rule="evenodd" clip-rule="evenodd" d="M19.6094 22.3623C21.9281 24.246 24.6068 25.3195 27.4636 25.3195C31.7118 25.3195 35.5683 22.9385 38.4302 19.0603C37.2218 17.4234 35.8367 16.0522 34.318 15.0156L31.8797 16.2329C32.4037 17.0482 32.709 18.0186 32.709 19.0603C32.709 21.954 30.361 24.2995 27.4636 24.2995C25.2123 24.2995 23.2929 22.8825 22.5488 20.8932L19.6094 22.361V22.3623ZM25.6587 19.3414C25.7172 19.7218 25.8953 20.0754 26.1713 20.3514C26.5134 20.6936 26.9789 20.8856 27.4636 20.8843C28.4722 20.8843 29.2901 20.0677 29.2901 19.0603C29.2901 18.5656 29.0929 18.1166 28.7724 17.7872L25.6599 19.3414H25.6587Z" fill="#2BAD72"/>
<path d="M20.2756 19.0198L38.0483 10.4762L34.1422 2.35107L32.1249 9.53115L29.7006 4.48668L27.6821 11.6667L25.2578 6.62223L23.2392 13.8023L20.8149 8.75779L18.7964 15.9379L16.3721 10.8934L13.1172 22.4616L17.5601 20.326L20.2756 19.021V19.0198Z" fill="#2BAD72"/>
</g>
<path d="M2.28594 35.2714V42.5617H5.80752V43.9209H0.86495V35.2714H2.28594ZM11.8094 43.1424C11.1833 43.7685 10.4131 44.0815 9.49872 44.0815C8.58434 44.0815 7.81413 43.7685 7.18807 43.1424C6.55377 42.5081 6.23662 41.7379 6.23662 40.8318C6.23662 39.9257 6.55377 39.1554 7.18807 38.5211C7.81413 37.8951 8.58434 37.582 9.49872 37.582C10.4131 37.582 11.1833 37.8951 11.8094 38.5211C12.4437 39.1554 12.7608 39.9257 12.7608 40.8318C12.7608 41.7379 12.4437 42.5081 11.8094 43.1424ZM7.57112 40.8318C7.57112 41.3919 7.75646 41.8574 8.12716 42.2281C8.49785 42.5988 8.95504 42.7841 9.49872 42.7841C10.0424 42.7841 10.4996 42.5988 10.8703 42.2281C11.241 41.8574 11.4263 41.3919 11.4263 40.8318C11.4263 40.2716 11.241 39.8062 10.8703 39.4355C10.4996 39.0648 10.0424 38.8795 9.49872 38.8795C8.95504 38.8795 8.49785 39.0648 8.12716 39.4355C7.75646 39.8062 7.57112 40.2716 7.57112 40.8318ZM15.302 43.9209H13.9675V34.9007H15.302V43.9209ZM21.3245 38.6323L18.4455 42.6605H21.4481V43.9209H16.6291V43.0312L19.5205 39.003H16.7526V37.7427H21.3245V38.6323ZM26.0186 37.7427V39.0277H24.4864V41.9933C24.4864 42.2487 24.5441 42.434 24.6594 42.5493C24.7747 42.6564 24.9436 42.7182 25.166 42.7347C25.3967 42.7429 25.6809 42.7388 26.0186 42.7223V43.9209C24.9971 44.0445 24.264 43.958 23.8192 43.6614C23.3743 43.3566 23.1519 42.8006 23.1519 41.9933V39.0277H22.0151V37.7427H23.1519V36.4082L24.4864 36.0128V37.7427H26.0186ZM32.9437 41.4002H28.0258C28.1247 41.8615 28.3471 42.2198 28.6931 42.4752C29.0473 42.7306 29.4839 42.8582 30.0029 42.8582C30.7031 42.8582 31.2344 42.6029 31.5969 42.0921L32.6966 42.7347C32.0952 43.6326 31.1932 44.0815 29.9905 44.0815C28.9938 44.0815 28.1824 43.7767 27.5563 43.1672C26.9385 42.5493 26.6296 41.7709 26.6296 40.8318C26.6296 39.9174 26.9344 39.1472 27.5439 38.5211C28.1453 37.8951 28.9279 37.582 29.8917 37.582C30.7896 37.582 31.531 37.8992 32.1158 38.5335C32.7007 39.1678 32.9931 39.938 32.9931 40.8441C32.9931 41.0089 32.9767 41.1942 32.9437 41.4002ZM28.0135 40.3128H31.6463C31.5557 39.8268 31.3497 39.452 31.0285 39.1884C30.7154 38.9248 30.3324 38.793 29.8793 38.793C29.3851 38.793 28.9732 38.9289 28.6437 39.2007C28.3142 39.4726 28.1041 39.8433 28.0135 40.3128ZM39.0243 38.62V37.7427H40.3588V43.9209H39.0243V43.0312C38.5218 43.7314 37.801 44.0815 36.8619 44.0815C36.0135 44.0815 35.2886 43.7685 34.6872 43.1424C34.0859 42.5164 33.7852 41.7462 33.7852 40.8318C33.7852 39.9174 34.0859 39.1472 34.6872 38.5211C35.2886 37.8951 36.0135 37.582 36.8619 37.582C37.801 37.582 38.5218 37.928 39.0243 38.62ZM35.6757 42.2528C36.0464 42.6235 36.5119 42.8088 37.072 42.8088C37.6322 42.8088 38.0976 42.6235 38.4683 42.2528C38.839 41.8738 39.0243 41.4002 39.0243 40.8318C39.0243 40.2634 38.839 39.7938 38.4683 39.4232C38.0976 39.0442 37.6322 38.8548 37.072 38.8548C36.5119 38.8548 36.0464 39.0442 35.6757 39.4232C35.305 39.7938 35.1197 40.2634 35.1197 40.8318C35.1197 41.3919 35.305 41.8656 35.6757 42.2528ZM48.6609 37.582C49.3611 37.582 49.9254 37.8086 50.3537 38.2617C50.7821 38.7147 50.9963 39.3243 50.9963 40.0904V43.9209H49.6618V40.1769C49.6618 39.7568 49.5547 39.4273 49.3405 39.1884C49.1263 38.9495 48.8339 38.83 48.4632 38.83C48.0431 38.83 47.7136 38.9701 47.4747 39.2502C47.2358 39.522 47.1163 39.9257 47.1163 40.4611V43.9209H45.7818V40.1769C45.7818 39.7485 45.6789 39.419 45.4729 39.1884C45.2752 38.9495 44.991 38.83 44.6203 38.83C44.2085 38.83 43.8748 38.9701 43.6195 39.2502C43.3723 39.5302 43.2488 39.9339 43.2488 40.4611V43.9209H41.9143V37.7427H43.2488V38.4841C43.6442 37.8827 44.2332 37.582 45.0157 37.582C45.8066 37.582 46.3914 37.9074 46.7704 38.5582C47.174 37.9074 47.8042 37.582 48.6609 37.582Z" fill="white"/>
</svg>
