<svg width="116" height="40" viewBox="0 0 116 40" fill="none" xmlns="http://www.w3.org/2000/svg">
<path d="M10.6667 7.2807V8.76281H3.36842V14.5565H10.3298V16.0386H3.36842V23H1.79649V7.2807H10.6667ZM24.8061 23H23.0097L19.3268 16.7123H14.9254V23H13.3535V7.2807H19.6412C20.9287 7.2807 22.0365 7.74479 22.9647 8.67298C23.8929 9.60117 24.357 10.709 24.357 11.9965C24.357 13.0744 24.0351 14.025 23.3914 14.8484C22.7776 15.6568 21.9692 16.2108 20.9661 16.5102L24.8061 23ZM19.6412 8.76281H14.9254V15.2302H19.6412C20.5095 15.2302 21.2506 14.9158 21.8644 14.287C22.4782 13.6283 22.7851 12.8648 22.7851 11.9965C22.7851 11.1132 22.4782 10.3497 21.8644 9.70596C21.2506 9.07719 20.5095 8.76281 19.6412 8.76281ZM28.6316 15.814V21.5179H36.2667V23H27.0596V7.2807H36.1544V8.76281H28.6316V14.3319H35.593V15.814H28.6316ZM40.5395 15.814V21.5179H48.1746V23H38.9675V7.2807H48.0623V8.76281H40.5395V14.3319H47.5009V15.814H40.5395Z" fill="#FA5745"/>
<path d="M54.1091 14.9158L61.879 23H59.813L52.4474 15.3874V23H50.8754V7.2807H52.4474V14.4667L59.5884 7.2807H61.6544L54.1091 14.9158ZM76.2474 23H74.5856L73.126 19.1375H65.6705L64.2109 23H62.5491L68.5898 7.2807H70.2067L76.2474 23ZM69.3982 9.23439L66.2319 17.6554H72.5646L69.3982 9.23439ZM82.7675 23.2695C81.3304 23.2695 80.0953 22.9326 79.0623 22.2589C78.0443 21.5703 77.3332 20.6271 76.9289 19.4295L78.2763 18.6435C78.5608 19.6316 79.0847 20.3951 79.8482 20.934C80.6267 21.473 81.6073 21.7425 82.79 21.7425C83.9427 21.7425 84.8485 21.488 85.5072 20.9789C86.1659 20.4699 86.4953 19.7813 86.4953 18.913C86.4953 18.0896 86.1958 17.4683 85.597 17.0491C85.0132 16.6299 84.0251 16.1958 82.6328 15.7467C80.9711 15.1927 79.8932 14.7586 79.3991 14.4442C78.2015 13.7256 77.6026 12.6851 77.6026 11.3228C77.6026 9.99041 78.0667 8.94246 78.9949 8.17895C79.9081 7.40047 81.0534 7.01123 82.4307 7.01123C83.6134 7.01123 84.6613 7.32561 85.5746 7.95439C86.4878 8.56819 87.1689 9.38409 87.6181 10.4021L86.2932 11.1432C85.5746 9.40655 84.2871 8.53824 82.4307 8.53824C81.4426 8.53824 80.6492 8.78526 80.0503 9.2793C79.4665 9.75836 79.1746 10.4171 79.1746 11.2554C79.1746 12.0489 79.444 12.6327 79.983 13.007C80.5369 13.3963 81.4277 13.793 82.6553 14.1972L83.8679 14.6239C84.1224 14.6987 84.4817 14.8334 84.9458 15.0281C85.4548 15.2227 85.8066 15.3874 86.0012 15.5221C86.7947 16.0012 87.2962 16.4428 87.5058 16.847C87.8801 17.4458 88.0672 18.1195 88.0672 18.8681C88.0672 20.2005 87.5806 21.2709 86.6075 22.0793C85.6344 22.8727 84.3544 23.2695 82.7675 23.2695ZM95.136 23.2695C93.6988 23.2695 92.4637 22.9326 91.4307 22.2589C90.4127 21.5703 89.7016 20.6271 89.2974 19.4295L90.6447 18.6435C90.9292 19.6316 91.4532 20.3951 92.2167 20.934C92.9951 21.473 93.9757 21.7425 95.1584 21.7425C96.3112 21.7425 97.2169 21.488 97.8756 20.9789C98.5343 20.4699 98.8637 19.7813 98.8637 18.913C98.8637 18.0896 98.5643 17.4683 97.9654 17.0491C97.3816 16.6299 96.3935 16.1958 95.0012 15.7467C93.3395 15.1927 92.2616 14.7586 91.7675 14.4442C90.5699 13.7256 89.9711 12.6851 89.9711 11.3228C89.9711 9.99041 90.4351 8.94246 91.3633 8.17895C92.2766 7.40047 93.4218 7.01123 94.7991 7.01123C95.9818 7.01123 97.0298 7.32561 97.943 7.95439C98.8562 8.56819 99.5374 9.38409 99.9865 10.4021L98.6616 11.1432C97.943 9.40655 96.6555 8.53824 94.7991 8.53824C93.8111 8.53824 93.0176 8.78526 92.4188 9.2793C91.8349 9.75836 91.543 10.4171 91.543 11.2554C91.543 12.0489 91.8125 12.6327 92.3514 13.007C92.9053 13.3963 93.7961 13.793 95.0237 14.1972L96.2363 14.6239C96.4908 14.6987 96.8501 14.8334 97.3142 15.0281C97.8232 15.2227 98.175 15.3874 98.3697 15.5221C99.1631 16.0012 99.6646 16.4428 99.8742 16.847C100.248 17.4458 100.436 18.1195 100.436 18.8681C100.436 20.2005 99.9491 21.2709 98.976 22.0793C98.0029 22.8727 96.7229 23.2695 95.136 23.2695ZM115.041 23H113.379L111.92 19.1375H104.464L103.005 23H101.343L107.384 7.2807H109.001L115.041 23ZM108.192 9.23439L105.026 17.6554H111.358L108.192 9.23439Z" fill="white"/>
<path d="M3.3207 30.9347C4.02152 30.9347 4.61754 31.1836 5.10877 31.6813C5.60655 32.1791 5.85544 32.7882 5.85544 33.5087C5.85544 34.2292 5.60655 34.8383 5.10877 35.3361C4.61754 35.8338 4.02152 36.0827 3.3207 36.0827C2.44959 36.0827 1.78807 35.7225 1.33614 35.002V37.9298H0.687719V31.0526H1.33614V32.0154C1.78807 31.2949 2.44959 30.9347 3.3207 30.9347ZM1.89614 34.894C2.26947 35.2673 2.72795 35.454 3.27158 35.454C3.8152 35.454 4.27368 35.2673 4.64702 34.894C5.02035 34.5075 5.20702 34.0458 5.20702 33.5087C5.20702 32.9651 5.02035 32.5066 4.64702 32.1333C4.27368 31.7534 3.8152 31.5634 3.27158 31.5634C2.72795 31.5634 2.26947 31.7534 1.89614 32.1333C1.52281 32.5066 1.33614 32.9651 1.33614 33.5087C1.33614 34.0458 1.52281 34.5075 1.89614 34.894ZM11.1582 32.0154V31.0526H11.8066V35.9648H11.1582V35.002C10.7062 35.7225 10.0447 36.0827 9.17361 36.0827C8.47279 36.0827 7.87349 35.8338 7.37571 35.3361C6.88448 34.8383 6.63887 34.2292 6.63887 33.5087C6.63887 32.7882 6.88448 32.1791 7.37571 31.6813C7.87349 31.1836 8.47279 30.9347 9.17361 30.9347C10.0447 30.9347 10.7062 31.2949 11.1582 32.0154ZM7.84729 34.894C8.22062 35.2673 8.6791 35.454 9.22273 35.454C9.76636 35.454 10.2248 35.2673 10.5982 34.894C10.9715 34.5075 11.1582 34.0458 11.1582 33.5087C11.1582 32.9651 10.9715 32.5066 10.5982 32.1333C10.2248 31.7534 9.76636 31.5634 9.22273 31.5634C8.6791 31.5634 8.22062 31.7534 7.84729 32.1333C7.47396 32.5066 7.28729 32.9651 7.28729 33.5087C7.28729 34.0458 7.47396 34.5075 7.84729 34.894ZM15.1248 35.1691L16.7163 31.0526H17.4041L15.3016 36.4168C15.1051 36.9146 14.83 37.2977 14.4763 37.5662C14.1292 37.8413 13.7428 37.9625 13.317 37.9298V37.3206C13.9065 37.3927 14.3552 37.0521 14.663 36.2989L14.7907 35.9943L12.59 31.0526H13.2777L15.1248 35.1691ZM23.4242 30.9347C23.9809 30.9347 24.4263 31.1115 24.7604 31.4652C25.0944 31.8189 25.2614 32.297 25.2614 32.8996V35.9648H24.613V32.8996C24.613 32.4804 24.5049 32.1529 24.2888 31.9171C24.0726 31.6813 23.7812 31.5634 23.4144 31.5634C22.9887 31.5634 22.6546 31.7043 22.4123 31.9859C22.1699 32.2675 22.0488 32.6867 22.0488 33.2434V35.9648H21.4004V32.8996C21.4004 32.4738 21.2988 32.1464 21.0958 31.9171C20.8927 31.6813 20.6111 31.5634 20.2509 31.5634C19.8382 31.5634 19.4977 31.7075 19.2291 31.9957C18.9671 32.2839 18.8361 32.6998 18.8361 33.2434V35.9648H18.1877V31.0526H18.8361V31.7698C19.1898 31.213 19.6909 30.9347 20.3393 30.9347C21.0532 30.9347 21.551 31.2327 21.8326 31.8287C22.1863 31.2327 22.7168 30.9347 23.4242 30.9347ZM28.785 30.9347C29.5186 30.9347 30.1048 31.1934 30.5436 31.7108C30.9956 32.2217 31.2215 32.8275 31.2215 33.5284C31.2215 33.5611 31.215 33.6626 31.2019 33.8329H26.8889C26.9544 34.3241 27.164 34.7171 27.5177 35.0119C27.8714 35.3066 28.3135 35.454 28.844 35.454C29.5907 35.454 30.1179 35.1756 30.4257 34.6189L30.9956 34.9529C30.7794 35.3066 30.4814 35.585 30.1015 35.788C29.7282 35.9845 29.3057 36.0827 28.8342 36.0827C28.0613 36.0827 27.4325 35.8404 26.9479 35.3557C26.4632 34.871 26.2208 34.2554 26.2208 33.5087C26.2208 32.7686 26.4599 32.1562 26.938 31.6715C27.4162 31.1803 28.0318 30.9347 28.785 30.9347ZM28.785 31.5634C28.2742 31.5634 27.8452 31.7141 27.498 32.0154C27.1574 32.3167 26.9544 32.7129 26.8889 33.2041H30.5535C30.4814 32.6802 30.2817 32.2774 29.9542 31.9957C29.6136 31.7075 29.2239 31.5634 28.785 31.5634ZM34.5519 30.9347C35.1414 30.9347 35.6097 31.1181 35.9568 31.4848C36.304 31.8451 36.4775 32.333 36.4775 32.9487V35.9648H35.8291V32.9487C35.8291 32.5099 35.7112 32.1693 35.4754 31.9269C35.2462 31.6846 34.9187 31.5634 34.493 31.5634C34.0017 31.5634 33.612 31.7174 33.3238 32.0252C33.0422 32.333 32.9014 32.7882 32.9014 33.3908V35.9648H32.253V31.0526H32.9014V31.8189C33.2682 31.2294 33.8183 30.9347 34.5519 30.9347ZM40.3348 31.0526V31.6813H38.9201V34.6582C38.9201 34.9267 38.9725 35.1199 39.0773 35.2378C39.1821 35.3492 39.3393 35.4081 39.5488 35.4147C39.7584 35.4147 40.0204 35.4081 40.3348 35.395V35.9648C39.634 36.0696 39.1133 36.0205 38.7727 35.8175C38.4387 35.6079 38.2717 35.2215 38.2717 34.6582V31.6813H37.2401V31.0526H38.2717V29.8736L38.9201 29.6771V31.0526H40.3348ZM44.3825 32.3396C44.3825 32.7195 44.7198 32.9978 45.3945 33.1747C45.5844 33.2205 45.7088 33.2533 45.7678 33.2729C45.8267 33.286 45.9414 33.322 46.1117 33.381C46.2885 33.4334 46.4097 33.4792 46.4752 33.5185C46.5472 33.5578 46.6455 33.62 46.7699 33.7052C46.8943 33.7838 46.9828 33.8657 47.0352 33.9508C47.0876 34.0294 47.1367 34.1342 47.1825 34.2652C47.2284 34.3896 47.2513 34.5239 47.2513 34.668C47.2513 35.0872 47.0843 35.4278 46.7502 35.6898C46.4293 35.9517 46.0036 36.0827 45.4731 36.0827C45.0146 36.0827 44.6183 35.9812 44.2843 35.7782C43.9502 35.5686 43.7145 35.2935 43.5769 34.9529L44.1271 34.6287C44.2188 34.8841 44.3825 35.0872 44.6183 35.2378C44.8607 35.3819 45.1456 35.454 45.4731 35.454C45.8071 35.454 46.0789 35.3885 46.2885 35.2575C46.4981 35.1265 46.6029 34.93 46.6029 34.668C46.6029 34.2881 46.2656 34.0098 45.591 33.8329C45.401 33.7871 45.2766 33.7576 45.2176 33.7445C45.1587 33.7248 45.0408 33.6888 44.8639 33.6364C44.6936 33.5775 44.5725 33.5284 44.5004 33.4891C44.4349 33.4498 44.34 33.3908 44.2155 33.3122C44.0911 33.2271 44.0026 33.1452 43.9502 33.0666C43.8979 32.9815 43.8487 32.8767 43.8029 32.7522C43.757 32.6212 43.7341 32.4837 43.7341 32.3396C43.7341 31.94 43.8913 31.606 44.2057 31.3375C44.5332 31.0689 44.936 30.9347 45.4141 30.9347C45.8071 30.9347 46.1542 31.0231 46.4555 31.1999C46.7633 31.3768 46.9893 31.6224 47.1334 31.9368L46.5931 32.2512C46.4097 31.7927 46.0167 31.5634 45.4141 31.5634C45.1194 31.5634 44.8738 31.6322 44.6773 31.7698C44.4808 31.9073 44.3825 32.0972 44.3825 32.3396ZM50.0288 35.1691L51.6204 31.0526H52.3081L50.2057 36.4168C50.0092 36.9146 49.7341 37.2977 49.3804 37.5662C49.0333 37.8413 48.6468 37.9625 48.2211 37.9298V37.3206C48.8106 37.3927 49.2592 37.0521 49.5671 36.2989L49.6948 35.9943L47.4941 31.0526H48.1818L50.0288 35.1691ZM53.3052 32.3396C53.3052 32.7195 53.6425 32.9978 54.3172 33.1747C54.5071 33.2205 54.6315 33.2533 54.6905 33.2729C54.7494 33.286 54.8641 33.322 55.0344 33.381C55.2112 33.4334 55.3324 33.4792 55.3979 33.5185C55.4699 33.5578 55.5682 33.62 55.6926 33.7052C55.817 33.7838 55.9055 33.8657 55.9579 33.9508C56.0103 34.0294 56.0594 34.1342 56.1052 34.2652C56.1511 34.3896 56.174 34.5239 56.174 34.668C56.174 35.0872 56.007 35.4278 55.6729 35.6898C55.352 35.9517 54.9263 36.0827 54.3958 36.0827C53.9373 36.0827 53.541 35.9812 53.207 35.7782C52.8729 35.5686 52.6372 35.2935 52.4996 34.9529L53.0498 34.6287C53.1415 34.8841 53.3052 35.0872 53.541 35.2378C53.7834 35.3819 54.0683 35.454 54.3958 35.454C54.7298 35.454 55.0016 35.3885 55.2112 35.2575C55.4208 35.1265 55.5256 34.93 55.5256 34.668C55.5256 34.2881 55.1883 34.0098 54.5136 33.8329C54.3237 33.7871 54.1993 33.7576 54.1403 33.7445C54.0814 33.7248 53.9635 33.6888 53.7866 33.6364C53.6163 33.5775 53.4952 33.5284 53.4231 33.4891C53.3576 33.4498 53.2627 33.3908 53.1382 33.3122C53.0138 33.2271 52.9253 33.1452 52.8729 33.0666C52.8206 32.9815 52.7714 32.8767 52.7256 32.7522C52.6797 32.6212 52.6568 32.4837 52.6568 32.3396C52.6568 31.94 52.814 31.606 53.1284 31.3375C53.4559 31.0689 53.8587 30.9347 54.3368 30.9347C54.7298 30.9347 55.0769 31.0231 55.3782 31.1999C55.686 31.3768 55.912 31.6224 56.0561 31.9368L55.5158 32.2512C55.3324 31.7927 54.9394 31.5634 54.3368 31.5634C54.0421 31.5634 53.7965 31.6322 53.6 31.7698C53.4035 31.9073 53.3052 32.0972 53.3052 32.3396ZM59.6673 31.0526V31.6813H58.2526V34.6582C58.2526 34.9267 58.305 35.1199 58.4098 35.2378C58.5146 35.3492 58.6718 35.4081 58.8814 35.4147C59.0909 35.4147 59.3529 35.4081 59.6673 35.395V35.9648C58.9665 36.0696 58.4458 36.0205 58.1052 35.8175C57.7712 35.6079 57.6042 35.2215 57.6042 34.6582V31.6813H56.5726V31.0526H57.6042V29.8736L58.2526 29.6771V31.0526H59.6673ZM62.7201 30.9347C63.4536 30.9347 64.0398 31.1934 64.4787 31.7108C64.9306 32.2217 65.1566 32.8275 65.1566 33.5284C65.1566 33.5611 65.15 33.6626 65.1369 33.8329H60.8239C60.8894 34.3241 61.099 34.7171 61.4527 35.0119C61.8064 35.3066 62.2485 35.454 62.779 35.454C63.5257 35.454 64.0529 35.1756 64.3608 34.6189L64.9306 34.9529C64.7145 35.3066 64.4164 35.585 64.0366 35.788C63.6632 35.9845 63.2408 36.0827 62.7692 36.0827C61.9963 36.0827 61.3676 35.8404 60.8829 35.3557C60.3982 34.871 60.1559 34.2554 60.1559 33.5087C60.1559 32.7686 60.3949 32.1562 60.8731 31.6715C61.3512 31.1803 61.9669 30.9347 62.7201 30.9347ZM62.7201 31.5634C62.2092 31.5634 61.7802 31.7141 61.4331 32.0154C61.0925 32.3167 60.8894 32.7129 60.8239 33.2041H64.4885C64.4164 32.6802 64.2167 32.2774 63.8892 31.9957C63.5486 31.7075 63.1589 31.5634 62.7201 31.5634ZM71.4245 30.9347C71.9812 30.9347 72.4266 31.1115 72.7606 31.4652C73.0947 31.8189 73.2617 32.297 73.2617 32.8996V35.9648H72.6133V32.8996C72.6133 32.4804 72.5052 32.1529 72.289 31.9171C72.0729 31.6813 71.7814 31.5634 71.4147 31.5634C70.9889 31.5634 70.6549 31.7043 70.4126 31.9859C70.1702 32.2675 70.049 32.6867 70.049 33.2434V35.9648H69.4006V32.8996C69.4006 32.4738 69.2991 32.1464 69.0961 31.9171C68.893 31.6813 68.6114 31.5634 68.2512 31.5634C67.8385 31.5634 67.4979 31.7075 67.2294 31.9957C66.9674 32.2839 66.8364 32.6998 66.8364 33.2434V35.9648H66.188V31.0526H66.8364V31.7698C67.1901 31.213 67.6912 30.9347 68.3396 30.9347C69.0535 30.9347 69.5513 31.2327 69.8329 31.8287C70.1866 31.2327 70.7171 30.9347 71.4245 30.9347Z" fill="#8D8D8D"/>
</svg>
