<svg width="100" height="27" viewBox="0 0 100 27" fill="none" xmlns="http://www.w3.org/2000/svg">
<g clip-path="url(#clip0_3032_12687)">
<path d="M12 0.00156403H4.22197C3.68963 0.00156403 3.23702 0.393463 3.15397 0.92601L0.00816776 21.1344C-0.0543998 21.533 0.250466 21.8926 0.6496 21.8926H4.36295C4.8952 21.8926 5.34781 21.5008 5.43086 20.9673L6.27928 15.5169C6.36122 14.9832 6.81495 14.5914 7.34608 14.5914H9.80837C14.932 14.5914 17.8889 12.0793 18.6613 7.10122C19.0092 4.92328 18.676 3.21211 17.6694 2.0137C16.564 0.697603 14.6033 0.00156403 12 0.00156403ZM12.8974 7.38242C12.472 10.2103 10.3395 10.2103 8.27755 10.2103H7.10387L7.92726 4.92913C7.97621 4.60989 8.2491 4.37482 8.56759 4.37482H9.10549C10.51 4.37482 11.8351 4.37482 12.5197 5.18597C12.928 5.67003 13.0532 6.38905 12.8974 7.38242Z" fill="#283B82"/>
<path d="M35.2496 7.29175H31.525C31.2078 7.29175 30.9337 7.52684 30.8846 7.84606L30.7199 8.90158L30.4593 8.51896C29.653 7.33318 27.8548 6.93686 26.0602 6.93686C21.9443 6.93686 18.4289 10.0954 17.7442 14.5261C17.3883 16.7362 17.8944 18.8497 19.1317 20.3234C20.2668 21.6785 21.8908 22.2432 23.8232 22.2432C27.1396 22.2432 28.9786 20.0827 28.9786 20.0827L28.8125 21.1313C28.7499 21.5323 29.0548 21.8918 29.4518 21.8918H32.8066C33.3401 21.8918 33.7905 21.5 33.8747 20.9665L35.8877 8.04996C35.9515 7.65239 35.6478 7.29175 35.2496 7.29175ZM30.0578 14.6367C29.6986 16.7927 28.0095 18.2401 25.8556 18.2401C24.774 18.2401 23.9096 17.8886 23.3545 17.2225C22.8041 16.5611 22.5948 15.6197 22.77 14.571C23.1055 12.4334 24.8229 10.9389 26.9439 10.9389C28.0017 10.9389 28.8614 11.295 29.4278 11.9667C29.9954 12.6454 30.2204 13.5927 30.0578 14.6367Z" fill="#283B82"/>
<path d="M55.088 7.29151H51.3452C50.9881 7.29151 50.6525 7.47128 50.4501 7.7721L45.2878 15.4766L43.0997 8.07283C42.9621 7.60953 42.5402 7.29151 42.0625 7.29151H38.3845C37.9374 7.29151 37.6271 7.73397 37.7692 8.16035L41.8919 20.4189L38.016 25.9628C37.7111 26.3994 38.0181 27 38.5449 27H42.2832C42.638 27 42.9702 26.8248 43.1714 26.5298L55.6203 8.32292C55.9183 7.88725 55.6124 7.29151 55.088 7.29151Z" fill="#283B82"/>
<path d="M67.4765 0.00156403H59.6974C59.1663 0.00156403 58.7135 0.393463 58.6305 0.92601L55.4847 21.1344C55.4223 21.533 55.727 21.8926 56.124 21.8926H60.1159C60.4866 21.8926 60.8041 21.6184 60.862 21.245L61.7547 15.5169C61.8366 14.9832 62.2905 14.5914 62.8216 14.5914H65.2828C70.4073 14.5914 73.3633 12.0793 74.1366 7.10122C74.4859 4.92328 74.1504 3.21211 73.1438 2.0137C72.0394 0.697603 70.0799 0.00156403 67.4765 0.00156403ZM68.374 7.38242C67.9497 10.2103 65.8174 10.2103 63.7541 10.2103H62.5817L63.4062 4.92913C63.4551 4.60989 63.7256 4.37482 64.0453 4.37482H64.5832C65.9868 4.37482 67.3128 4.37482 67.9974 5.18597C68.4058 5.67003 68.5296 6.38905 68.374 7.38242Z" fill="#469BDB"/>
<path d="M90.7293 7.29175H87.0069C86.6873 7.29175 86.4153 7.52684 86.3676 7.84606L86.2027 8.90158L85.9412 8.51896C85.1349 7.33318 83.3379 6.93686 81.5432 6.93686C77.4272 6.93686 73.9131 10.0954 73.2283 14.5261C72.8735 16.7362 73.3773 18.8497 74.6148 20.3234C75.7521 21.6785 77.3738 22.2432 79.306 22.2432C82.6224 22.2432 84.4615 20.0827 84.4615 20.0827L84.2954 21.1313C84.233 21.5323 84.5376 21.8918 84.937 21.8918H88.2909C88.822 21.8918 89.2747 21.5 89.3578 20.9665L91.3719 8.04996C91.4331 7.65239 91.1285 7.29175 90.7293 7.29175ZM85.5374 14.6367C85.1802 16.7927 83.489 18.2401 81.3351 18.2401C80.2557 18.2401 79.3891 17.8886 78.8341 17.2225C78.2838 16.5611 78.0766 15.6197 78.2496 14.571C78.5873 12.4334 80.3024 10.9389 82.4236 10.9389C83.4812 10.9389 84.3409 11.295 84.9073 11.9667C85.4771 12.6454 85.7023 13.5927 85.5374 14.6367Z" fill="#469BDB"/>
<path d="M95.1226 0.555992L91.93 21.1344C91.8676 21.533 92.1723 21.8926 92.5693 21.8926H95.7787C96.3121 21.8926 96.7649 21.5008 96.8467 20.9673L99.9947 0.760115C100.057 0.361244 99.7526 0.00060463 99.3556 0.00060463H95.7616C95.4443 0.00156593 95.1714 0.236944 95.1226 0.555992Z" fill="#469BDB"/>
</g>
<defs>
<clipPath id="clip0_3032_12687">
<rect width="100" height="27" fill="white"/>
</clipPath>
</defs>
</svg>
