<svg width="88" height="39" viewBox="0 0 88 39" fill="none" xmlns="http://www.w3.org/2000/svg">
<g clip-path="url(#clip0_3032_12741)">
<path d="M146.724 155.38H-4.53906V-9.1084H146.724V155.38ZM-1.24121 42.4863H40.1191V-2.49023H-1.24121V42.4863ZM16.0488 3.62598C16.4222 3.6229 19.656 4.17051 23.2354 4.84375C35.0869 7.07249 35.5732 7.83975 33.2256 20.6055C32.0294 27.111 31.7669 28.0693 30.8076 29.4336C30.2601 30.2123 28.6456 31.336 27.7803 31.541L27.123 31.6963L27.9463 30.8193C30.0942 28.5301 30.1793 27.6275 29.0391 19.1719C27.69 9.1651 27.0514 7.87687 22.9932 6.96875C21.782 6.6976 10.8083 7.99046 10.334 8.45996C10.1767 8.61727 7.86682 20.5457 7.6582 22.2783C7.37726 24.6128 8.77327 27.3808 10.8428 28.5938C11.8884 29.2061 23.9582 32.0729 25.6289 32.1055L26.4453 32.1221L25.543 32.4521C24.2911 32.9103 13.3336 34.5762 11.5723 34.5762C8.96925 34.5761 6.86876 33.1759 5.78906 30.7217C5.06423 29.0742 3.38976 15.4055 3.71387 13.7822C4.22588 11.2188 6.32809 9.17383 9.08789 8.55469C10.0794 8.33229 10.301 8.18679 10.4951 7.62988C11.1955 5.62164 13.9384 3.64406 16.0488 3.62598ZM15.0195 24.959L16.5898 26.5166L17.7881 26.2422C18.4473 26.091 19.5969 25.8255 20.3428 25.6523L21.6992 25.3379L20.71 26.2275C19.1158 27.661 15.9734 28.4313 14.5801 27.7305C13.9432 27.41 13.4978 26.0816 13.4678 24.4111L13.4492 23.4004L15.0195 24.959ZM20.6777 11.7686C20.8631 11.7593 22.1558 12.9447 23.5518 14.4043C26.4968 17.4833 26.3836 16.9926 25.127 21.2412C24.1003 24.7125 24.0416 24.7994 22.4668 25.165L21.8779 25.3018L22.4102 24.25C24.0733 20.9646 21.7682 16.5713 17.7393 15.3477C14.8946 14.4837 13.4852 16.7413 13.4404 22.2314L13.4307 23.3887L12.624 22.4844C11.0323 20.7001 11.059 21.0194 12.1865 17.167C13.3514 13.1865 13.0326 13.5213 16.3857 12.7559C17.8162 12.4293 19.2921 12.0782 19.665 11.9756C20.038 11.8732 20.4938 11.7799 20.6777 11.7686Z" fill="#FF8C02"/>
</g>
<path d="M47.2351 9.22855V11.2774H51.0848V13H45.4342V3.865H51.0196V5.5876H47.2351V7.53205H50.6933V9.22855H47.2351ZM54.1552 3.865V11.2774H57.6395V13H52.3543V3.865H54.1552ZM58.6626 13V3.865H60.4635V13H58.6626ZM61.4759 3.865H68.1966V5.5876H65.7302V13H63.9293V5.5876H61.4759V3.865ZM71.0029 9.22855V11.2774H74.8527V13H69.202V3.865H74.7874V5.5876H71.0029V7.53205H74.4612V9.22855H71.0029ZM48.5531 32.1827C47.657 32.1827 46.9001 31.9826 46.2824 31.5824C45.6647 31.1822 45.2254 30.6298 44.9644 29.925L46.5043 29.0246C46.861 29.9555 47.5613 30.421 48.6053 30.421C49.0925 30.421 49.4579 30.334 49.7015 30.16C49.9451 29.9859 50.0669 29.751 50.0669 29.4553C50.0669 29.1334 49.9234 28.8854 49.6363 28.7114C49.3492 28.5287 48.8359 28.333 48.0964 28.1241C47.296 27.8805 46.6652 27.5978 46.2041 27.2759C45.6299 26.8496 45.3428 26.2232 45.3428 25.3967C45.3428 24.5615 45.6343 23.9046 46.2172 23.4262C46.8001 22.9303 47.5091 22.6823 48.3443 22.6823C49.0751 22.6823 49.7233 22.8606 50.2888 23.2174C50.8543 23.5741 51.2936 24.0787 51.6068 24.7311L50.093 25.6055C49.7276 24.8225 49.1447 24.431 48.3443 24.431C47.9789 24.431 47.6875 24.518 47.47 24.692C47.2525 24.8573 47.1437 25.0748 47.1437 25.3445C47.1437 25.6316 47.2612 25.8665 47.4961 26.0492C47.7571 26.2319 48.2182 26.4233 48.8794 26.6234L49.5058 26.8322C49.6189 26.867 49.8146 26.941 50.093 27.0541C50.354 27.1497 50.5454 27.2411 50.6672 27.3281C51.0935 27.5891 51.3806 27.8588 51.5285 28.1372C51.7547 28.5026 51.8678 28.9333 51.8678 29.4291C51.8678 30.2731 51.559 30.943 50.9413 31.4389C50.3236 31.9348 49.5275 32.1827 48.5531 32.1827ZM54.7796 28.2286V30.2774H58.6294V32H52.9787V22.865H58.5641V24.5876H54.7796V26.532H58.2379V28.2286H54.7796ZM61.6997 22.865V30.2774H65.184V32H59.8988V22.865H61.6997ZM68.008 22.865V30.2774H71.4924V32H66.2071V22.865H68.008ZM74.3164 28.2286V30.2774H78.1661V32H72.5155V22.865H78.1009V24.5876H74.3164V26.532H77.7746V28.2286H74.3164ZM86.3912 32H84.4468L82.6067 28.8288H81.2365V32H79.4356V22.865H83.0896C83.9335 22.865 84.6512 23.1608 85.2428 23.7524C85.8344 24.344 86.1302 25.0574 86.1302 25.8926C86.1302 26.4581 85.9693 26.9845 85.6474 27.4717C85.3255 27.9502 84.8992 28.3112 84.3685 28.5548L86.3912 32ZM83.0896 24.5484H81.2365V27.2498H83.0896C83.4289 27.2498 83.7203 27.1193 83.9639 26.8583C84.2075 26.5886 84.3293 26.2667 84.3293 25.8926C84.3293 25.5185 84.2075 25.201 83.9639 24.94C83.7203 24.679 83.4289 24.5484 83.0896 24.5484Z" fill="white"/>
<defs>
<clipPath id="clip0_3032_12741">
<rect width="38.0625" height="38.0625" fill="white"/>
</clipPath>
</defs>
</svg>
