<svg width="116" height="29" viewBox="0 0 116 29" fill="none" xmlns="http://www.w3.org/2000/svg">
<g clip-path="url(#clip0_3032_12761)">
<path fill-rule="evenodd" clip-rule="evenodd" d="M13.5989 15.5675C13.3611 15.3292 13.0787 15.1401 12.7677 15.0108C12.4567 14.8816 12.1234 14.8149 11.7866 14.8145C11.4498 14.814 11.1163 14.8799 10.805 15.0083C10.4937 15.1366 10.2107 15.3251 9.97226 15.5627C9.73381 15.8004 9.54454 16.0827 9.41525 16.3935C9.28597 16.7043 9.2192 17.0374 9.21875 17.374C9.21831 17.7106 9.2842 18.0439 9.41266 18.3551C9.54113 18.6662 9.72965 18.949 9.96747 19.1873L19.8936 29.0825L23.5255 25.4619L13.5989 15.5675Z" fill="#F4A800"/>
<path fill-rule="evenodd" clip-rule="evenodd" d="M23.9166 9.89441L13.9909 0L10.3594 3.62017L20.2851 13.515C20.5227 13.7545 20.8053 13.9448 21.1166 14.0749C21.428 14.2051 21.7619 14.2726 22.0994 14.2735C22.4369 14.2745 22.7712 14.2088 23.0833 14.0804C23.3953 13.9519 23.6789 13.7632 23.9178 13.525C24.1568 13.2868 24.3463 13.0038 24.4756 12.6922C24.6049 12.3807 24.6713 12.0467 24.6712 11.7094C24.6711 11.3722 24.6044 11.0382 24.4749 10.7268C24.3454 10.4153 24.1557 10.1324 23.9166 9.89441Z" fill="#F4A800"/>
<path fill-rule="evenodd" clip-rule="evenodd" d="M14.3607 0.531452L13.9892 0L0.751279 13.1652C0.270244 13.6459 -1.34101e-08 14.298 0 14.9779C1.34101e-08 15.6577 0.270244 16.3098 0.751279 16.7905C1.23231 17.2713 1.88474 17.5414 2.56502 17.5414C3.24531 17.5414 3.89773 17.2713 4.37877 16.7905L14.2914 6.93198C16.4077 4.82729 15.262 1.82542 14.3607 0.531452Z" fill="#FFBB13"/>
<path fill-rule="evenodd" clip-rule="evenodd" d="M33.134 12.2969C32.652 11.817 31.9995 11.5472 31.3192 11.5464C30.6388 11.5456 29.9857 11.8138 29.5025 12.2925L19.5907 22.1507C17.4744 24.255 18.62 27.2572 19.5217 28.5504L19.8921 29.0827L33.13 15.9171C33.3684 15.6798 33.5576 15.3978 33.6868 15.0874C33.816 14.7769 33.8827 14.4441 33.8831 14.1078C33.8835 13.7716 33.8175 13.4386 33.689 13.1278C33.5604 12.8171 33.3718 12.5347 33.134 12.2969Z" fill="#FFBB13"/>
<path fill-rule="evenodd" clip-rule="evenodd" d="M56.0608 20.3185H58.9791L53.7356 6.21985H51.0401L45.8125 20.3185H48.7308L49.6907 17.4991H55.1009L56.0608 20.3185ZM50.4956 15.1151L52.3763 9.58226H52.3958L54.2865 15.1151H50.4956ZM66.4541 10.4639C65.8635 10.4581 65.2787 10.5818 64.741 10.8262C64.2034 11.0706 63.7258 11.4298 63.342 11.8786H63.313V10.6288H60.7143V20.3185H63.313V15.4446C63.313 13.7199 64.1951 12.7993 65.5138 12.7993C66.716 12.7993 67.3753 13.371 67.3753 15.2219V20.3284H69.9736V14.5725C69.9736 11.5882 68.529 10.4639 66.4541 10.4639ZM78.2267 10.6284L76.0064 16.6266H75.9789L73.6039 10.6284H70.8888L74.7671 19.7177L73.0414 24.2426H75.6978L80.9218 10.6284H78.2263H78.2267ZM82.8715 20.3185H85.6256V15.4932H87.8264C90.9289 15.4932 92.9942 14.0104 92.9942 10.9193C92.9942 8.21579 91.5109 6.21826 88.0883 6.21826H82.8715V20.3185ZM85.6252 13.0224V8.70063H87.5932C89.222 8.70063 90.1046 9.55318 90.1046 10.8611C90.1046 12.1598 89.232 13.022 87.4768 13.022H85.6256L85.6252 13.0224ZM101.909 10.6284V11.7236H101.87C101.516 11.3155 101.076 10.9908 100.581 10.773C100.086 10.5552 99.5497 10.4496 99.0095 10.4639C96.4112 10.4639 94.4428 12.5566 94.4428 15.5023C94.4428 18.4966 96.4013 20.4822 99.0872 20.4822C99.6419 20.5054 100.194 20.3962 100.698 20.1636C101.202 19.931 101.644 19.5818 101.986 19.1448H102.035V20.3185H104.506V10.6284H101.909ZM99.5632 18.158C98.1086 18.158 97.0809 17.0823 97.0809 15.5127C97.0809 13.8558 98.1767 12.7993 99.5727 12.7993C100.979 12.7993 102.016 13.9622 102.016 15.5127C102.016 17.1019 100.911 18.158 99.5632 18.158ZM113.306 10.6284L111.085 16.6266H111.058L108.683 10.6284H105.968L109.846 19.7177L108.12 24.2426H110.777L116.001 10.6284H113.305H113.306Z" fill="white"/>
</g>
<defs>
<clipPath id="clip0_3032_12761">
<rect width="116" height="29" fill="white"/>
</clipPath>
</defs>
</svg>
