<svg width="110" height="33" viewBox="0 0 110 33" fill="none" xmlns="http://www.w3.org/2000/svg">
<path d="M50.4415 8.6151V10.7931H44.6005V14.6739H50.2435V16.8519H44.6005V22.4751H42.3235V8.6151H50.4415ZM59.1055 17.8815V12.5751H61.2439V22.4751H59.1055V21.2079C58.4455 22.2243 57.4225 22.7325 56.0365 22.7325C54.8881 22.7325 53.9641 22.3695 53.2645 21.6435C52.5781 20.9043 52.2349 19.9077 52.2349 18.6537V12.5751H54.3733V18.4359C54.3733 19.1751 54.5713 19.7427 54.9673 20.1387C55.3633 20.5347 55.9045 20.7327 56.5909 20.7327C57.3697 20.7327 57.9835 20.4951 58.4323 20.0199C58.8811 19.5315 59.1055 18.8187 59.1055 17.8815ZM68.9519 12.3177C70.1003 12.3177 71.0177 12.6873 71.7041 13.4265C72.4037 14.1525 72.7535 15.1425 72.7535 16.3965V22.4751H70.6151V16.6143C70.6151 15.8751 70.4171 15.3075 70.0211 14.9115C69.6251 14.5155 69.0839 14.3175 68.3975 14.3175C67.6187 14.3175 67.0049 14.5617 66.5561 15.0501C66.1073 15.5253 65.8829 16.2315 65.8829 17.1687V22.4751H63.7445V12.5751H65.8829V13.8423C66.5429 12.8259 67.5659 12.3177 68.9519 12.3177ZM80.6594 12.3177C82.0058 12.3177 83.1674 12.8259 84.1442 13.8423C85.1078 14.8455 85.5896 16.0731 85.5896 17.5251C85.5896 18.9903 85.1078 20.2245 84.1442 21.2277C83.1806 22.2309 82.019 22.7325 80.6594 22.7325C79.1678 22.7325 78.0128 22.1781 77.1944 21.0693V26.4351H75.056V12.5751H77.1944V14.0007C77.9996 12.8787 79.1546 12.3177 80.6594 12.3177ZM78.0854 19.8021C78.6794 20.3961 79.4252 20.6931 80.3228 20.6931C81.2204 20.6931 81.9662 20.3961 82.5602 19.8021C83.1542 19.1949 83.4512 18.4359 83.4512 17.5251C83.4512 16.6143 83.1542 15.8619 82.5602 15.2679C81.9662 14.6607 81.2204 14.3571 80.3228 14.3571C79.4252 14.3571 78.6794 14.6607 78.0854 15.2679C77.4914 15.8619 77.1944 16.6143 77.1944 17.5251C77.1944 18.4227 77.4914 19.1817 78.0854 19.8021ZM95.3685 13.9809V12.5751H97.5069V22.4751H95.3685V21.0495C94.5633 22.1715 93.4083 22.7325 91.9035 22.7325C90.5439 22.7325 89.3823 22.2309 88.4187 21.2277C87.4551 20.2245 86.9733 18.9903 86.9733 17.5251C86.9733 16.0599 87.4551 14.8257 88.4187 13.8225C89.3823 12.8193 90.5439 12.3177 91.9035 12.3177C93.4083 12.3177 94.5633 12.8721 95.3685 13.9809ZM90.0027 19.8021C90.5967 20.3961 91.3425 20.6931 92.2401 20.6931C93.1377 20.6931 93.8835 20.3961 94.4775 19.8021C95.0715 19.1949 95.3685 18.4359 95.3685 17.5251C95.3685 16.6143 95.0715 15.8619 94.4775 15.2679C93.8835 14.6607 93.1377 14.3571 92.2401 14.3571C91.3425 14.3571 90.5967 14.6607 90.0027 15.2679C89.4087 15.8619 89.1117 16.6143 89.1117 17.5251C89.1117 18.4227 89.4087 19.1817 90.0027 19.8021ZM104.138 19.7625L106.672 12.5751H108.949L105.147 22.7919C104.197 25.3527 102.587 26.5671 100.316 26.4351V24.4353C100.976 24.4749 101.511 24.3363 101.92 24.0195C102.329 23.7027 102.672 23.1945 102.95 22.4949L103.049 22.2969L98.851 12.5751H101.187L104.138 19.7625Z" fill="white"/>
<path d="M8.6875 8.68375L16.5254 0L24.3662 8.68375H20.6766V18.91L12.1551 8.68375H8.6875ZM24.3662 24.3192L16.5254 33L8.6875 24.3192H12.4063V14.0608L20.8957 24.3192H24.3662Z" fill="#4384D0"/>
</svg>
