<svg width="133" height="25" viewBox="0 0 133 25" fill="none" xmlns="http://www.w3.org/2000/svg">
<g clip-path="url(#clip0_3032_12712)">
<path d="M7.19978 4.74042L8.37431 20.5466L1.17456 20.1211L0 4.31494L7.19978 4.74042Z" fill="#A7E23D"/>
<path d="M11.3873 8.68627L12.5618 24.4924L5.36206 24.0669L4.1875 8.26074L11.3873 8.68627Z" fill="#A7E23D"/>
<path d="M13.6451 0.996287L14.8196 16.8024L7.61983 16.377L6.44531 0.570801L13.6451 0.996287Z" fill="#A7E23D"/>
<path d="M21.6641 18.2737H25.8507V13.7021H32.1868V18.2737H36.3734V6.78857H32.1868V10.8629H25.8507V6.78857H21.6641V18.2737Z" fill="white"/>
<path d="M46.1006 18.6749C51.1535 18.6749 54.522 16.2206 54.522 12.5312C54.522 8.8419 51.1535 6.3877 46.1006 6.3877C41.0639 6.3877 37.6953 8.8419 37.6953 12.5312C37.6953 16.2206 41.0639 18.6749 46.1006 18.6749ZM46.1006 15.7234C43.5822 15.7234 41.8819 14.4401 41.8819 12.5312C41.8819 10.6224 43.5822 9.33917 46.1006 9.33917C48.619 9.33917 50.3354 10.6224 50.3354 12.5312C50.3354 14.4401 48.619 15.7234 46.1006 15.7234Z" fill="white"/>
<path d="M63.9756 18.6749C69.0281 18.6749 72.3972 16.2206 72.3972 12.5312C72.3972 8.8419 69.0281 6.3877 63.9756 6.3877C58.9389 6.3877 55.5703 8.8419 55.5703 12.5312C55.5703 16.2206 58.9389 18.6749 63.9756 18.6749ZM63.9756 15.7234C61.4572 15.7234 59.7569 14.4401 59.7569 12.5312C59.7569 10.6224 61.4572 9.33917 63.9756 9.33917C66.494 9.33917 68.2103 10.6224 68.2103 12.5312C68.2103 14.4401 66.494 15.7234 63.9756 15.7234Z" fill="white"/>
<path d="M73.7188 18.2737H81.8834C86.3427 18.2737 88.8291 16.2205 88.8291 12.5311C88.8291 8.84176 86.3427 6.78857 81.8834 6.78857H73.7188V18.2737ZM77.7935 15.4345V9.61172H81.306C83.5201 9.61172 84.7708 10.6704 84.7708 12.5311C84.7708 14.3919 83.5201 15.4345 81.306 15.4345H77.7935Z" fill="white"/>
<path d="M90.1641 18.2737H94.3512V14.7608H99.3879C102.66 14.7608 104.473 13.3653 104.489 10.8308C104.489 8.23224 102.676 6.78857 99.4196 6.78857H90.1641V18.2737ZM94.3512 12.4028V9.14656H98.0242C99.4837 9.14656 100.286 9.72404 100.286 10.7667C100.286 11.8254 99.4837 12.4028 98.0242 12.4028H94.3512Z" fill="white"/>
<path d="M103.102 18.2737H107.432L108.315 16.2686H114.041L114.939 18.2737H119.286L113.688 6.78857H108.828L103.102 18.2737ZM109.133 13.9106L111.186 9.37114H111.218L113.239 13.9106H109.133Z" fill="white"/>
<path d="M122.746 18.2737H126.933V14.3597L132.435 6.78857H127.976L124.864 11.6328H124.848L121.575 6.78857H117.164L122.746 14.3597V18.2737Z" fill="white"/>
</g>
<defs>
<clipPath id="clip0_3032_12712">
<rect width="133" height="24.8083" fill="white"/>
</clipPath>
</defs>
</svg>
