<svg width="43" height="51" viewBox="0 0 43 51" fill="none" xmlns="http://www.w3.org/2000/svg">
<path d="M3.81337 44.6758C2.96595 44.6758 2.24439 44.487 1.64868 44.1095C1.06137 43.7235 0.650244 43.1907 0.415317 42.5111L1.66127 41.7812C2.01366 42.7712 2.74361 43.2663 3.85112 43.2663C4.3881 43.2663 4.79502 43.1614 5.0719 42.9516C5.34878 42.7419 5.48722 42.4608 5.48722 42.1084C5.48722 41.756 5.34039 41.4833 5.04673 41.2904C4.75307 41.0974 4.23288 40.8876 3.48615 40.6611C2.72263 40.4345 2.10595 40.1661 1.6361 39.8556C1.06556 39.4529 0.780293 38.8614 0.780293 38.0811C0.780293 37.3008 1.05717 36.6841 1.61093 36.231C2.15629 35.7696 2.82332 35.5388 3.612 35.5388C4.30839 35.5388 4.92088 35.7108 5.44946 36.0548C5.98644 36.3905 6.39756 36.8645 6.68283 37.477L5.46205 38.1818C5.09288 37.3595 4.4762 36.9484 3.612 36.9484C3.19249 36.9484 2.85688 37.0491 2.60517 37.2505C2.35346 37.4434 2.22761 37.7077 2.22761 38.0433C2.22761 38.3705 2.35346 38.6306 2.60517 38.8236C2.85688 39.0082 3.32254 39.2054 4.00215 39.4151C4.42166 39.5578 4.66498 39.6417 4.7321 39.6668C4.84117 39.7004 5.05932 39.7843 5.38654 39.9185C5.65502 40.0276 5.86898 40.1451 6.02839 40.2709C6.68283 40.7827 6.98488 41.3868 6.93454 42.0832C6.93454 42.8803 6.64507 43.5138 6.06615 43.9836C5.504 44.4451 4.75307 44.6758 3.81337 44.6758ZM14.3442 41.9448H9.3352C9.43588 42.4146 9.66242 42.7796 10.0148 43.0397C10.3756 43.2998 10.8203 43.4299 11.3489 43.4299C12.062 43.4299 12.6032 43.1698 12.9724 42.6496L14.0925 43.304C13.48 44.2185 12.5612 44.6758 11.3363 44.6758C10.321 44.6758 9.49461 44.3654 8.85695 43.7445C8.22768 43.1152 7.91305 42.3224 7.91305 41.3659C7.91305 40.4345 8.22349 39.6501 8.84437 39.0124C9.45685 38.3747 10.2539 38.0559 11.2356 38.0559C12.1501 38.0559 12.9052 38.3789 13.501 39.025C14.0967 39.671 14.3945 40.4555 14.3945 41.3785C14.3945 41.5463 14.3777 41.735 14.3442 41.9448ZM9.32261 40.8373H13.0227C12.9304 40.3423 12.7207 39.9605 12.3934 39.692C12.0746 39.4235 11.6845 39.2893 11.223 39.2893C10.7196 39.2893 10.3001 39.4277 9.96446 39.7046C9.62885 39.9815 9.4149 40.359 9.32261 40.8373ZM16.9497 44.5122H15.5905V35.3249H16.9497V44.5122ZM19.8871 44.5122H18.5279V35.3249H19.8871V44.5122ZM24.7753 38.0559C25.5052 38.0559 26.0884 38.2908 26.5246 38.7607C26.9693 39.2222 27.1917 39.8514 27.1917 40.6485V44.5122H25.8324V40.7869C25.8324 40.3171 25.7066 39.9563 25.4549 39.7046C25.2032 39.4529 24.8592 39.327 24.4229 39.327C23.9279 39.327 23.5377 39.4823 23.2524 39.7927C22.9672 40.0947 22.8245 40.5436 22.8245 41.1393V44.5122H21.4653V35.7025H22.8245V39.025C23.2441 38.3789 23.8943 38.0559 24.7753 38.0559ZM32.8965 41.5924V38.2195H34.2557V44.5122H32.8965V43.7067C32.477 44.3528 31.8267 44.6758 30.9457 44.6758C30.2158 44.6758 29.6285 44.4451 29.1838 43.9836C28.7475 43.5138 28.5294 42.8803 28.5294 42.0832V38.2195H29.8886V41.9448C29.8886 42.4146 30.0144 42.7754 30.2661 43.0271C30.5178 43.2788 30.8618 43.4047 31.2981 43.4047C31.7932 43.4047 32.1833 43.2537 32.4686 42.9516C32.7538 42.6412 32.8965 42.1881 32.8965 41.5924ZM39.4067 38.0559C40.2709 38.0559 41.0093 38.3747 41.6218 39.0124C42.2343 39.6501 42.5405 40.4345 42.5405 41.3659C42.5405 42.2972 42.2343 43.0817 41.6218 43.7193C41.0093 44.357 40.2709 44.6758 39.4067 44.6758C38.4503 44.6758 37.7161 44.3192 37.2043 43.6061V44.5122H35.8451V35.7025H37.2043V39.1131C37.7245 38.4083 38.4587 38.0559 39.4067 38.0559ZM37.7707 42.8132C38.1482 43.1907 38.6223 43.3795 39.1928 43.3795C39.7633 43.3795 40.2374 43.1907 40.6149 42.8132C40.9925 42.4272 41.1813 41.9448 41.1813 41.3659C41.1813 40.7869 40.9925 40.3087 40.6149 39.9311C40.2374 39.5452 39.7633 39.3522 39.1928 39.3522C38.6223 39.3522 38.1482 39.5452 37.7707 39.9311C37.3931 40.3087 37.2043 40.7869 37.2043 41.3659C37.2043 41.9364 37.3931 42.4188 37.7707 42.8132Z" fill="white"/>
<path d="M29.7881 17.3315C29.7881 12.1079 29.7167 12.4207 30.7939 12.937C33.3888 14.1805 34.8081 16.3949 34.8867 19.3237C34.9907 23.205 32.7693 26.0712 29.04 26.8677C28.5731 26.9674 27.0852 26.9897 19.3135 27.0122L10.1377 27.0386L9.7832 26.853C7.82266 25.8286 7.73532 23.396 9.61914 22.2886L9.97949 22.0767L14.9814 22.0347C17.732 22.0114 19.9912 21.9843 20.002 21.9751C20.0127 21.9612 20.0215 20.9102 20.0215 19.6353C20.0215 16.6585 19.6888 16.9966 22.6211 16.9966C25.5517 16.9966 25.2216 16.6689 25.2178 19.5767C25.2161 20.8487 25.2492 21.9555 25.293 22.103C25.8641 24.0287 28.3053 24.4209 29.3486 22.7544C29.7889 22.0511 29.7881 22.0564 29.7881 17.3315ZM15.9893 2.58643C16.917 2.35825 34.8444 2.3465 35.3408 2.57373C36.5177 3.11235 37.1462 4.78612 36.6064 5.9458C36.3988 6.39186 35.8195 7.07166 35.6465 7.07275C35.5871 7.07275 35.5383 7.10254 35.5381 7.13916C35.5381 7.43601 35.0845 7.46544 30.166 7.48584C27.1105 7.49852 25.3576 7.53415 25.3076 7.58447C25.2624 7.63015 25.2064 8.64941 25.1738 10.0103C25.1217 12.1842 25.1064 12.3623 24.9707 12.4351C24.7384 12.5594 20.2923 12.4944 20.1631 12.3647C20.0839 12.2835 20.0615 11.7114 20.0615 9.80518V7.34814L19.8555 6.91064C19.0726 5.24418 16.8835 4.96411 16.0293 6.42139C15.5445 7.24867 15.5322 7.38838 15.5322 12.1665C15.5322 17.378 15.5847 17.0865 14.7236 16.6938C8.27093 13.7517 9.12109 4.27551 15.9893 2.58643Z" fill="url(#paint0_linear_3032_12749)"/>
<defs>
<linearGradient id="paint0_linear_3032_12749" x1="22.5298" y1="2.40869" x2="22.5298" y2="27.039" gradientUnits="userSpaceOnUse">
<stop stop-color="#1A7AEC"/>
<stop offset="1" stop-color="#00469B"/>
</linearGradient>
</defs>
</svg>
