<svg width="124" height="29" viewBox="0 0 124 29" fill="none" xmlns="http://www.w3.org/2000/svg">
<path fill-rule="evenodd" clip-rule="evenodd" d="M27.7028 19.1665C28.2886 19.4266 28.9296 19.4652 29.3878 19.4652C30.7419 19.4652 31.7657 18.6093 31.7657 15.6C31.7657 13.2403 30.9239 12.4786 29.6982 12.4786C28.9656 12.4786 28.435 12.6837 27.7028 13.0915V19.1665ZM27.722 11.717C28.2698 11.4207 29.2029 11.0292 30.1916 11.0292C32.4612 11.0292 33.6877 12.627 33.6877 15.6C33.6877 19.0748 32.0402 20.7655 29.3878 20.7655C28.4171 20.7655 26.9165 20.4496 25.8178 19.8536V6.88614L27.722 6.42236V11.717ZM7.35703 11.2305H7.4857L9.97371 20.5029H11.9504L14.9163 7.32967H12.7748L10.9078 17.1591H10.7797L8.23557 7.32967H6.60616L4.2274 17.1591H4.09938L2.04945 7.32967H0L2.96509 20.5029H4.94031L7.35703 11.2305ZM21.7069 14.8955H17.5166C17.717 13.0385 18.5778 12.1655 19.6941 12.1655C20.6821 12.1655 21.616 12.9452 21.7069 14.8955ZM23.1708 19.8019V18.3896C22.1649 19.0015 21.2499 19.3552 20.2618 19.355C18.3761 19.355 17.4799 18.3702 17.4799 16.1412H23.4462V15.4537C23.4462 12.4259 22.0361 10.9198 19.749 10.9198C17.0037 10.9198 15.5948 12.9637 15.5948 15.7891C15.5948 18.7243 16.8576 20.6567 19.9313 20.6567C21.2499 20.6567 22.3474 20.2847 23.1708 19.8019ZM42.0164 17.7081H41.9247L37.8258 7.32185H35.6106V20.4961H37.2579V11.1686H37.422L41.1569 20.4961H42.3272L46.0612 10.9453H46.2263V20.4961H48.2028V7.32185H45.9321L42.0164 17.7081ZM56.2783 15.7885C56.2783 13.2803 55.2726 12.2219 54.0281 12.2219C52.8206 12.2219 51.7765 13.2803 51.7765 15.7885C51.7765 18.3342 52.7293 19.355 54.0281 19.355C55.3268 19.355 56.2783 18.3342 56.2783 15.7885ZM49.8556 15.7885C49.8556 12.5359 51.613 10.9198 54.0281 10.9198C56.4446 10.9198 58.2011 12.5359 58.2011 15.7885C58.2011 18.965 56.5358 20.6567 54.0281 20.6567C51.5209 20.6567 49.8556 18.965 49.8556 15.7885ZM59.6485 12.2958C60.4719 11.7934 62.2113 10.9198 64.3154 10.9198C66.5115 10.9198 67.3335 11.7934 67.3335 13.7066V20.4335H65.4316V14.1345C65.4316 12.667 64.719 12.4069 63.7844 12.4069C63.0533 12.4069 62.1187 12.7418 61.5518 13.0762V20.4335H59.6485V12.2958ZM75.5532 14.8955H71.3625C71.5647 13.0385 72.4237 12.1655 73.5404 12.1655C74.5286 12.1655 75.4631 12.9452 75.5532 14.8955ZM77.0169 19.8019V18.3896C76.0122 19.0015 75.0956 19.3552 74.1085 19.355C72.2234 19.355 71.3265 18.3702 71.3265 16.1412H77.2935V15.4537C77.2935 12.4259 75.8837 10.9198 73.5953 10.9198C70.8497 10.9198 69.4413 12.9637 69.4413 15.7891C69.4413 18.7243 70.705 20.6567 73.7778 20.6567C75.0956 20.6567 76.1939 20.2847 77.0169 19.8019ZM86.8544 10.9198H84.8956L82.8104 17.7571H82.7005L80.3581 10.9198H78.3446L81.8587 20.2086C81.4185 21.5844 80.651 22.5883 79.4058 22.5883V24.1107C81.51 24.1107 82.6252 22.7729 83.5415 20.2086L86.8544 10.9198Z" fill="#036CB5"/>
<path d="M108.726 0C110.963 0 113.092 0.517894 115.003 1.44431C115.302 1.58087 115.604 1.7443 115.903 1.90787L114.593 3.08007L112.629 1.03593L109.245 4.03365L107.252 1.88028L101.03 7.46759L105.014 11.8555L103.458 13.218L107.389 17.606L105.834 18.9677L111.456 25.209L114.783 22.1565L117.678 25.4278C117.104 25.864 116.476 26.301 115.795 26.6818C113.72 27.8536 111.318 28.5337 108.753 28.5337C100.866 28.5337 94.4532 22.1302 94.4532 14.2546C94.4254 6.43211 100.839 0 108.726 0ZM106.105 13.3819L109.517 10.3292L112.574 13.7359L109.162 16.7882L106.105 13.3819ZM108.535 19.2688L111.919 16.1893L115.003 19.5956L111.591 22.6484L108.535 19.2688ZM103.678 7.57699L107.088 4.52438L110.145 7.93097L106.733 10.9835L103.678 7.57699ZM109.926 5.94124L112.465 3.65202L114.757 6.18675L112.219 8.50303L109.926 5.94124ZM114.457 16.434L116.994 14.1446L119.287 16.7058L116.749 18.9967L114.457 16.434ZM116.695 21.5856L119.233 19.2958L121.524 21.8303L118.987 24.1464L116.695 21.5856ZM117.732 9.81132L119.424 8.28496L120.951 9.97534L119.26 11.5011L117.732 9.81132ZM115.549 4.76932L117.24 3.21618L118.769 4.93289L117.076 6.45913L115.549 4.76932ZM119.888 14.8538L121.579 13.3276L123.135 15.0174L121.416 16.5431L119.888 14.8538ZM112.274 11.0653L114.812 8.77588L117.104 11.3101L114.567 13.5998L112.274 11.0653Z" fill="#036CB5"/>
</svg>
