<svg width="20" height="20" viewBox="0 0 20 20" fill="none" xmlns="http://www.w3.org/2000/svg">
<path d="M9.9974 1.66699C5.3974 1.66699 1.66406 5.40033 1.66406 10.0003C1.66406 14.6003 5.3974 18.3337 9.9974 18.3337C14.5974 18.3337 18.3307 14.6003 18.3307 10.0003C18.3307 5.40033 14.5974 1.66699 9.9974 1.66699ZM13.8641 7.33366C13.7391 8.65033 13.1974 11.8503 12.9224 13.3253C12.8057 13.9503 12.5724 14.1587 12.3557 14.1753C11.8724 14.217 11.5057 13.8503 11.0391 13.5337C10.3057 13.042 9.88906 12.7253 9.18073 12.2503C8.35573 11.7003 8.88906 11.3837 9.36406 10.9087C9.48906 10.7837 11.6224 8.85033 11.6641 8.67533C11.6698 8.64841 11.6691 8.62049 11.6618 8.59399C11.6546 8.56758 11.6411 8.54341 11.6224 8.52366C11.5724 8.47533 11.5057 8.49199 11.4474 8.50033C11.3724 8.52533 10.2057 9.31699 7.93073 10.8837C7.5974 11.1087 7.2974 11.217 7.03073 11.2087C6.73073 11.2003 6.16406 11.042 5.73906 10.9087C5.21406 10.7503 4.80573 10.667 4.83906 10.3753C4.85573 10.2253 5.06406 10.0753 5.45573 9.91699C7.88906 8.85866 9.50573 8.15866 10.3141 7.82533C12.6307 6.85866 13.1057 6.69199 13.4224 6.69199C13.4891 6.69199 13.6474 6.70866 13.7474 6.79199C13.8307 6.85866 13.8557 6.95033 13.8641 7.01699C13.8557 7.06699 13.8724 7.21699 13.8641 7.33366Z" fill="white"/>
</svg>
