<svg width="32" height="32" viewBox="0 0 32 32" fill="none" xmlns="http://www.w3.org/2000/svg">
<path d="M25.3333 4L24 6.66667L14.6667 10.6667V21.3333L24 25.3333L25.3333 28H28V18.3047C28.4047 18.071 28.7409 17.7351 28.9749 17.3307C29.2089 16.9262 29.3325 16.4673 29.3333 16C29.333 15.5323 29.2096 15.0728 28.9755 14.6679C28.7415 14.2629 28.4051 13.9266 28 13.6927V4H25.3333ZM6.66667 10.6667C5.2 10.6667 4 11.8667 4 13.3333V18.6667C4 20.1333 5.2 21.3333 6.66667 21.3333H9.33333V28H12V18.6667V10.6667H6.66667Z" fill="#FFC700"/>
</svg>
