<svg width="24" height="24" viewBox="0 0 24 24" fill="none" xmlns="http://www.w3.org/2000/svg">
<path d="M12 4C10.628 4.00134 9.2827 4.37898 8.11045 5.09184C6.93821 5.80469 5.98396 6.82543 5.35156 8.04297C3.88254 8.20266 2.52411 8.89884 1.53659 9.99808C0.549076 11.0973 0.00192767 12.5223 0 14C0 15.5913 0.632141 17.1174 1.75736 18.2426C2.88258 19.3679 4.4087 20 6 20H19C19.6566 20 20.3068 19.8707 20.9134 19.6194C21.52 19.3681 22.0712 18.9998 22.5355 18.5355C22.9998 18.0712 23.3681 17.52 23.6194 16.9134C23.8707 16.3068 24 15.6566 24 15C23.9985 13.7344 23.5172 12.5165 22.6531 11.5918C21.789 10.6672 20.6063 10.1046 19.3438 10.0176C19.0017 8.32134 18.0837 6.79555 16.7453 5.69882C15.4069 4.6021 13.7304 4.00191 12 4Z" fill="white"/>
</svg>
