<svg width="36" height="36" viewBox="0 0 36 36" fill="none" xmlns="http://www.w3.org/2000/svg">
<path d="M22.2287 6.38989C21.9307 6.92342 21.6653 7.47442 21.4337 8.03989C19.1578 7.67997 16.8395 7.67997 14.5637 8.03989C14.332 7.47442 14.0666 6.92342 13.7687 6.38989C11.6248 6.75619 9.54076 7.4122 7.57366 8.33989C4.05607 13.4163 2.46081 19.5793 3.07365 25.7249C5.36601 27.4482 7.93884 28.7625 10.6787 29.6099C11.3025 28.7858 11.8593 27.913 12.3437 26.9999C11.4498 26.6703 10.5906 26.2533 9.77866 25.7549C10.0013 25.6067 10.212 25.4412 10.4087 25.2599C12.7763 26.4004 15.3706 26.9926 17.9987 26.9926C20.6267 26.9926 23.221 26.4004 25.5887 25.2599C25.7987 25.4399 26.0087 25.6049 26.2187 25.7549C25.4023 26.2494 24.544 26.671 23.6537 27.0149C24.1179 27.9487 24.6598 28.8418 25.2737 29.6849C28.01 28.8404 30.5784 27.5258 32.8637 25.7999C33.4912 19.6532 31.8947 13.4852 28.3637 8.41489C26.4186 7.468 24.3552 6.7869 22.2287 6.38989ZM13.0187 22.2149C12.268 22.161 11.5675 21.8184 11.064 21.2591C10.5606 20.6997 10.2934 19.967 10.3187 19.2149C10.2896 18.4618 10.5555 17.727 11.0597 17.1668C11.5639 16.6066 12.2666 16.2651 13.0187 16.2149C13.7707 16.2651 14.4734 16.6066 14.9776 17.1668C15.4818 17.727 15.7477 18.4618 15.7187 19.2149C15.7477 19.968 15.4818 20.7028 14.9776 21.263C14.4734 21.8232 13.7707 22.1647 13.0187 22.2149ZM22.9787 22.2149C22.228 22.161 21.5275 21.8184 21.024 21.2591C20.5206 20.6997 20.2534 19.967 20.2787 19.2149C20.2496 18.4618 20.5155 17.727 21.0197 17.1668C21.5239 16.6066 22.2266 16.2651 22.9787 16.2149C23.7321 16.2614 24.4371 16.6017 24.9421 17.1628C25.447 17.7239 25.7115 18.4608 25.6787 19.2149C25.7115 19.969 25.447 20.7059 24.9421 21.267C24.4371 21.828 23.7321 22.1684 22.9787 22.2149Z" fill="#8F8F8F"/>
</svg>
