<svg width="30" height="29" viewBox="0 0 30 29" fill="none" xmlns="http://www.w3.org/2000/svg">
<path d="M13.2922 1.03608C13.7412 -0.345885 15.6963 -0.345882 16.1453 1.03608L18.5916 8.56496C18.7924 9.183 19.3684 9.60144 20.0182 9.60144H27.9345C29.3876 9.60144 29.9918 11.4609 28.8162 12.315L22.4118 16.9681C21.886 17.35 21.666 18.0271 21.8669 18.6451L24.3131 26.174C24.7622 27.556 23.1804 28.7052 22.0049 27.8511L15.6004 23.1979C15.0747 22.816 14.3628 22.816 13.8371 23.1979L7.43262 27.8511C6.25705 28.7052 4.67533 27.556 5.12436 26.174L7.57064 18.6451C7.77145 18.0271 7.55147 17.35 7.02574 16.9681L0.621285 12.315C-0.554286 11.4609 0.0498805 9.60144 1.50297 9.60144H9.4193C10.0691 9.60144 10.6451 9.183 10.8459 8.56496L13.2922 1.03608Z" fill="#FFCB11"/>
</svg>
