<svg width="16" height="16" viewBox="0 0 16 16" fill="none" xmlns="http://www.w3.org/2000/svg">
<path d="M13.3333 5.33301H2.66667C2.29848 5.33301 2 5.63148 2 5.99967V7.33301C2 7.7012 2.29848 7.99967 2.66667 7.99967H13.3333C13.7015 7.99967 14 7.7012 14 7.33301V5.99967C14 5.63148 13.7015 5.33301 13.3333 5.33301Z" stroke="#FFC700" stroke-width="1.33333" stroke-linecap="round" stroke-linejoin="round"/>
<path d="M8 5.33301V13.9997" stroke="#FFC700" stroke-width="1.33333" stroke-linecap="round" stroke-linejoin="round"/>
<path d="M12.6693 8V12.6667C12.6693 13.0203 12.5288 13.3594 12.2787 13.6095C12.0287 13.8595 11.6896 14 11.3359 14H4.66927C4.31565 14 3.97651 13.8595 3.72646 13.6095C3.47641 13.3594 3.33594 13.0203 3.33594 12.6667V8" stroke="#FFC700" stroke-width="1.33333" stroke-linecap="round" stroke-linejoin="round"/>
<path d="M5.0026 5.33362C4.56058 5.33362 4.13665 5.15803 3.82409 4.84547C3.51153 4.53291 3.33594 4.10899 3.33594 3.66696C3.33594 3.22493 3.51153 2.80101 3.82409 2.48845C4.13665 2.17589 4.56058 2.00029 5.0026 2.00029C5.64573 1.98909 6.27595 2.30113 6.81109 2.89573C7.34624 3.49033 7.76145 4.33989 8.0026 5.33362C8.24375 4.33989 8.65897 3.49033 9.19411 2.89573C9.72925 2.30113 10.3595 1.98909 11.0026 2.00029C11.4446 2.00029 11.8686 2.17589 12.1811 2.48845C12.4937 2.80101 12.6693 3.22493 12.6693 3.66696C12.6693 4.10899 12.4937 4.53291 12.1811 4.84547C11.8686 5.15803 11.4446 5.33362 11.0026 5.33362" stroke="#FFC700" stroke-width="1.33333" stroke-linecap="round" stroke-linejoin="round"/>
</svg>
