<svg width="36" height="36" viewBox="0 0 36 36" fill="none" xmlns="http://www.w3.org/2000/svg">
<path d="M30.4228 15.5341H17.9323V20.7106H25.1203C24.4513 24.0001 21.6508 25.8901 17.9323 25.8901C16.8918 25.8919 15.8612 25.6882 14.8996 25.2908C13.938 24.8934 13.0643 24.3101 12.3286 23.5743C11.5929 22.8385 11.0097 21.9646 10.6125 21.003C10.2153 20.0413 10.0118 19.0106 10.0138 17.9701C10.012 16.9297 10.2156 15.8993 10.613 14.9377C11.0103 13.9762 11.5935 13.1026 12.3291 12.3669C13.0648 11.6313 13.9384 11.0481 14.8999 10.6508C15.8614 10.2534 16.8919 10.0498 17.9323 10.0516C19.8208 10.0516 21.5278 10.7221 22.8673 11.8186L26.7673 7.92011C24.3913 5.84861 21.3448 4.57061 17.9323 4.57061C16.171 4.56547 14.4261 4.90858 12.7979 5.58022C11.1697 6.25186 9.69032 7.23877 8.44489 8.4842C7.19947 9.72962 6.21256 11.209 5.54092 12.8372C4.86928 14.4654 4.52616 16.2103 4.53131 17.9716C4.52596 19.733 4.86894 21.478 5.54051 23.1063C6.21208 24.7346 7.19899 26.214 8.44445 27.4595C9.68991 28.7049 11.1694 29.6918 12.7977 30.3634C14.426 31.035 16.171 31.378 17.9323 31.3726C24.6328 31.3726 30.7258 26.4991 30.7258 17.9716C30.7258 17.1796 30.6043 16.3261 30.4228 15.5341Z" fill="#8F8F8F"/>
</svg>
