<svg width="24" height="24" viewBox="0 0 24 24" fill="none" xmlns="http://www.w3.org/2000/svg">
<g opacity="0.3" clip-path="url(#clip0_3032_10472)">
<path d="M11 1C9.93913 1 8.92172 1.42143 8.17157 2.17157C7.42143 2.92172 7 3.93913 7 5C7 6.06087 7.42143 7.07828 8.17157 7.82843C8.92172 8.57857 9.93913 9 11 9C12.0609 9 13.0783 8.57857 13.8284 7.82843C14.5786 7.07828 15 6.06087 15 5C15 3.93913 14.5786 2.92172 13.8284 2.17157C13.0783 1.42143 12.0609 1 11 1ZM8 15.184C8 13.482 9.339 12.104 11.02 12.016C10.844 12.008 10.668 12 10.5 12C7.117 12 2 13.795 2 16.5V19H8V15.184ZM24 15.156C24 14.518 23.482 14 22.844 14H18.664L20.207 12.457L18.793 11.043L17 12.836L15.207 11.043L13.793 12.457L15.336 14H11.156C10.518 14 10 14.518 10 15.156V17H11V23.996H16V24H18V23.996L23 24.01V17H24V15.156ZM13 21.996V17H16V21.996H13ZM21 22.005L18 21.997V17H21V22.005Z" fill="white"/>
</g>
<defs>
<clipPath id="clip0_3032_10472">
<rect width="24" height="24" fill="white"/>
</clipPath>
</defs>
</svg>
