<svg width="24" height="24" viewBox="0 0 24 24" fill="none" xmlns="http://www.w3.org/2000/svg">
<path d="M13.2799 5.02333C12.7335 4.87692 12.2005 4.95371 11.7675 5.20371L2.06799 10.8037C1.11536 11.3537 0.785937 12.5831 1.33594 13.5358L5.33594 20.464C5.88594 21.4166 7.11536 21.746 8.06799 21.196L17.7675 15.596C18.2005 15.346 18.5335 14.9228 18.6799 14.3764L20.6564 6.99986L13.2799 5.02333ZM16.8263 10.3659C16.3483 10.6419 15.7363 10.4779 15.4603 9.99986C15.1843 9.52182 15.3483 8.90984 15.8263 8.63384C16.3044 8.35784 16.9163 8.52182 17.1923 8.99986C17.4683 9.47791 17.3044 10.0899 16.8263 10.3659Z" fill="white" fill-opacity="0.4"/>
</svg>
