<svg width="24" height="24" viewBox="0 0 24 24" fill="none" xmlns="http://www.w3.org/2000/svg">
<path d="M10.5 3C9.119 3 8 4.119 8 5.5C8 6.881 9.119 8 10.5 8C10.672 8 10.8409 7.98222 11.0039 7.94922C11.0159 6.44422 11.5837 5.07434 12.5117 4.02734C12.0567 3.40634 11.328 3 10.5 3ZM17 4C14.791 4 13 5.791 13 8C13 10.209 14.791 12 17 12C19.209 12 21 10.209 21 8C21 5.791 19.209 4 17 4ZM6 11C5.68957 11.0012 5.38121 11.0507 5.08594 11.1465L1 12.1074V19.3086L5 18L13.1562 20.8535C13.8083 21.0815 14.5267 21.0272 15.1367 20.7012L22.4629 16.7832L21.2852 14.2695L14.084 17.5723L13.7129 17.084L14.0059 16.4277C14.4609 15.4127 14.0005 14.2213 12.9805 13.7773L7.23242 11.2676C7.19692 11.2513 7.16111 11.2356 7.125 11.2207C6.76767 11.0755 6.3857 11.0006 6 11Z" fill="white"/>
</svg>
