<svg width="32" height="32" viewBox="0 0 32 32" fill="none" xmlns="http://www.w3.org/2000/svg">
<path d="M11.9974 2.66675C6.85853 2.66675 2.66406 6.86122 2.66406 12.0001C2.66406 17.1389 6.85853 21.3334 11.9974 21.3334C14.3281 21.3334 16.4574 20.4641 18.0964 19.0417L18.6641 19.6095V21.3334L26.6641 29.3334L29.3307 26.6667L21.3307 18.6667H19.6068L19.0391 18.099C20.4614 16.4601 21.3307 14.3307 21.3307 12.0001C21.3307 6.86122 17.1363 2.66675 11.9974 2.66675ZM11.9974 5.33341C15.6951 5.33341 18.6641 8.30239 18.6641 12.0001C18.6641 15.6978 15.6951 18.6667 11.9974 18.6667C8.2997 18.6667 5.33073 15.6978 5.33073 12.0001C5.33073 8.30239 8.2997 5.33341 11.9974 5.33341Z" fill="white" fill-opacity="0.4"/>
</svg>
