<svg width="30" height="30" viewBox="0 0 30 30" fill="none" xmlns="http://www.w3.org/2000/svg">
<path d="M29.2891 5.20628L22.7796 -2.84536e-07L22.7796 3.57892L8.1334 3.57892C4.55755 3.57892 1.62397 6.5125 1.62397 10.0884C1.62397 13.6642 4.55755 16.5978 8.1334 16.5978L21.1523 16.5978C22.9695 16.5978 24.407 18.0353 24.407 19.8525C24.407 21.6697 22.9695 23.1072 21.1523 23.1072L6.50605 23.1072L6.50605 19.5283L-0.00338853 24.7346L6.50604 29.9409L6.50605 26.3619L21.1523 26.3619C24.7281 26.3619 27.6617 23.4284 27.6617 19.8525C27.6617 16.2767 24.7281 13.3431 21.1523 13.3431L8.1334 13.3431C6.31619 13.3431 4.87869 11.9056 4.87869 10.0884C4.87869 8.27114 6.31619 6.83363 8.1334 6.83363L22.7796 6.83363L22.7796 10.4126L29.2891 5.20628Z" fill="white"/>
</svg>
