<svg width="18" height="18" viewBox="0 0 18 18" fill="none" xmlns="http://www.w3.org/2000/svg">
<path d="M8.61122 3.15609C8.82834 2.94797 9.17147 2.94797 9.38859 3.15609L13.7011 7.28109C13.8672 7.44009 13.9197 7.68384 13.8342 7.89722C13.7487 8.11059 13.5425 8.25009 13.3126 8.25009H4.68759C4.45809 8.25009 4.25109 8.11022 4.16522 7.89722C4.07972 7.68422 4.13259 7.44009 4.29834 7.28109L8.61122 3.15609ZM4.68759 9.75009H13.3126C13.5425 9.75009 13.7491 9.88997 13.8346 10.103C13.9201 10.316 13.8672 10.5601 13.7015 10.7191L9.38897 14.8441C9.28022 14.948 9.14034 15.0001 9.00009 15.0001C8.85984 15.0001 8.71997 14.948 8.61122 14.8441L4.29872 10.7191C4.13297 10.5601 4.08009 10.3163 4.16559 10.103C4.25109 9.88997 4.45809 9.75009 4.68759 9.75009Z" fill="white" fill-opacity="0.9"/>
</svg>
