<svg width="36" height="36" viewBox="0 0 36 36" fill="none" xmlns="http://www.w3.org/2000/svg">
<path d="M12.315 25.9801L10.5 25.2001C10.7714 25.7561 11.1983 26.2214 11.729 26.5394C12.2598 26.8574 12.8714 27.0145 13.4897 26.9916C14.108 26.9686 14.7063 26.7667 15.212 26.4102C15.7177 26.0538 16.109 25.5582 16.3385 24.9836C16.5679 24.409 16.6256 23.7802 16.5045 23.1734C16.3834 22.5667 16.0887 22.0082 15.6563 21.5657C15.2239 21.1232 14.6723 20.8158 14.0685 20.6808C13.4647 20.5457 12.8347 20.5889 12.255 20.8051L14.175 21.6001C14.7558 21.8428 15.2165 22.3062 15.4556 22.8885C15.6947 23.4708 15.6927 24.1243 15.45 24.7051C15.2073 25.2859 14.7439 25.7466 14.1616 25.9857C13.5793 26.2248 12.9258 26.2228 12.345 25.9801H12.315Z" fill="#8F8F8F"/>
<path d="M18 3.00004C14.1875 2.99172 10.5149 4.43547 7.72862 7.03782C4.94238 9.64017 3.25162 13.2058 3 17.01L11.07 20.325C11.2905 20.1785 11.527 20.0577 11.775 19.965C12.3189 19.7315 12.9086 19.6238 13.5 19.65L17.16 14.31C17.16 13.1827 17.4943 12.0806 18.1206 11.1433C18.7469 10.2059 19.6372 9.47534 20.6787 9.04392C21.7202 8.6125 22.8663 8.49962 23.972 8.71956C25.0777 8.9395 26.0933 9.48237 26.8905 10.2795C27.6877 11.0767 28.2305 12.0923 28.4505 13.198C28.6704 14.3037 28.5575 15.4498 28.1261 16.4913C27.6947 17.5329 26.9641 18.4231 26.0268 19.0494C25.0894 19.6757 23.9874 20.01 22.86 20.01H22.74L17.475 23.76C17.499 24.7896 17.1397 25.7914 16.4669 26.5712C15.7941 27.3509 14.8557 27.853 13.8337 27.98C12.8117 28.1071 11.7789 27.8501 10.9357 27.2588C10.0924 26.6675 9.49884 25.7842 9.27 24.78L3.615 22.38C4.42562 25.0351 5.95713 27.4131 8.03907 29.2494C10.121 31.0857 12.6717 32.3083 15.4072 32.7809C18.1427 33.2536 20.9557 32.9579 23.5332 31.9267C26.1106 30.8955 28.3513 29.1693 30.0059 26.9402C31.6604 24.7111 32.664 22.0666 32.9047 19.301C33.1455 16.5354 32.6141 13.7573 31.3696 11.2758C30.1252 8.79427 28.2165 6.7068 25.8561 5.2457C23.4956 3.7846 20.776 3.00721 18 3.00004Z" fill="#8F8F8F"/>
<path d="M26.6835 14.2499C26.6924 13.4975 26.4774 12.7594 26.0659 12.1294C25.6544 11.4994 25.0648 11.006 24.3722 10.7119C23.6796 10.4177 22.9152 10.3361 22.1761 10.4774C21.437 10.6187 20.7566 10.9766 20.2213 11.5055C19.6861 12.0344 19.3201 12.7105 19.17 13.4478C19.0199 14.1852 19.0924 14.9505 19.3783 15.6466C19.6641 16.3427 20.1505 16.9381 20.7755 17.3571C21.4005 17.7761 22.136 17.9999 22.8885 17.9999C23.8861 17.9961 24.8423 17.6012 25.5519 16.9C26.2615 16.1989 26.6678 15.2474 26.6835 14.2499ZM20.0535 14.2499C20.0564 13.6869 20.2261 13.1373 20.5411 12.6706C20.856 12.2039 21.3022 11.841 21.8232 11.6276C22.3442 11.4142 22.9168 11.3599 23.4686 11.4715C24.0205 11.5832 24.5269 11.8558 24.924 12.255C25.3211 12.6541 25.591 13.162 25.6998 13.7144C25.8085 14.2668 25.7512 14.8391 25.5351 15.359C25.3189 15.8789 24.9536 16.3231 24.4853 16.6356C24.0169 16.9481 23.4665 17.1149 22.9035 17.1149C22.5267 17.1149 22.1536 17.0402 21.8059 16.8951C21.4581 16.75 21.1426 16.5374 20.8775 16.2696C20.6125 16.0018 20.4032 15.684 20.2618 15.3348C20.1203 14.9855 20.0495 14.6117 20.0535 14.2349V14.2499Z" fill="#8F8F8F"/>
</svg>
