<svg width="23" height="23" viewBox="0 0 23 23" fill="none" xmlns="http://www.w3.org/2000/svg">
<g clip-path="url(#clip0_3034_17900)">
<path d="M5.39062 7.36696C5.48039 8.44081 5.68653 9.91178 6.15296 11.4563C7.14357 14.7362 8.89354 17.0685 11.357 18.3938C13.8204 17.0685 15.5704 14.7362 16.5609 11.4563C17.0274 9.91191 17.2335 8.4409 17.3233 7.36696L11.357 4.38379L5.39062 7.36696Z" fill="#5FC24F"/>
<path d="M21.3726 5.30683C21.3601 5.0676 21.22 4.85352 21.0057 4.74642L11.6534 0.0702175C11.4661 -0.0234058 11.2457 -0.0234058 11.0584 0.0702175L1.70603 4.74642C1.49178 4.85352 1.35163 5.0676 1.33921 5.30683C1.33212 5.44298 1.17831 8.68489 2.28267 12.4488C2.93613 14.6758 3.89729 16.6208 5.13945 18.23C6.70479 20.2578 8.71669 21.7495 11.1193 22.6638C11.1955 22.6928 11.2757 22.7073 11.3559 22.7073C11.4361 22.7073 11.5163 22.6928 11.5925 22.6638C13.9951 21.7495 16.007 20.2578 17.5723 18.23C18.8145 16.6208 19.7756 14.6757 20.4291 12.4488C21.5335 8.68489 21.3797 5.44298 21.3726 5.30683ZM11.6507 19.739C11.5578 19.785 11.4568 19.8079 11.3559 19.8079C11.2549 19.8079 11.1539 19.785 11.061 19.739C8.09881 18.2744 6.0186 15.6172 4.87827 11.8413C4.30793 9.95273 4.10201 8.17314 4.02972 7.01285C4.01309 6.74639 4.1574 6.49586 4.39618 6.37646L11.0584 3.04536C11.2457 2.95179 11.4661 2.95174 11.6534 3.04536L18.3157 6.37646C18.5545 6.49581 18.6988 6.74643 18.6822 7.01289C18.6099 8.17327 18.4039 9.95291 17.8336 11.8413C16.6932 15.6171 14.613 18.2743 11.6507 19.739Z" fill="#5FC24F"/>
</g>
<defs>
<clipPath id="clip0_3034_17900">
<rect width="22.7073" height="22.7073" fill="white"/>
</clipPath>
</defs>
</svg>
