<svg width="20" height="20" viewBox="0 0 20 20" fill="none" xmlns="http://www.w3.org/2000/svg">
<path d="M13.3385 17.5V15.8333C13.3385 14.9493 12.9874 14.1014 12.3622 13.4763C11.7371 12.8512 10.8893 12.5 10.0052 12.5H5.00521C4.12115 12.5 3.27331 12.8512 2.64819 13.4763C2.02306 14.1014 1.67188 14.9493 1.67188 15.8333V17.5" stroke="#FFC700" stroke-width="1.66667" stroke-linecap="round" stroke-linejoin="round"/>
<path d="M13.3281 2.60645C14.0429 2.79175 14.676 3.20917 15.1279 3.79316C15.5798 4.37716 15.825 5.09469 15.825 5.83311C15.825 6.57154 15.5798 7.28906 15.1279 7.87306C14.676 8.45706 14.0429 8.87447 13.3281 9.05978" stroke="#FFC700" stroke-width="1.66667" stroke-linecap="round" stroke-linejoin="round"/>
<path d="M18.3281 17.5001V15.8334C18.3276 15.0948 18.0818 14.3774 17.6293 13.7937C17.1768 13.2099 16.5432 12.793 15.8281 12.6084" stroke="#FFC700" stroke-width="1.66667" stroke-linecap="round" stroke-linejoin="round"/>
<path d="M7.50521 9.16667C9.34616 9.16667 10.8385 7.67428 10.8385 5.83333C10.8385 3.99238 9.34616 2.5 7.50521 2.5C5.66426 2.5 4.17188 3.99238 4.17188 5.83333C4.17188 7.67428 5.66426 9.16667 7.50521 9.16667Z" stroke="#FFC700" stroke-width="1.66667" stroke-linecap="round" stroke-linejoin="round"/>
</svg>
