<svg width="20" height="20" viewBox="0 0 20 20" fill="none" xmlns="http://www.w3.org/2000/svg">
<path d="M13.8891 1.2124C13.5922 1.2124 13.2422 1.27334 12.7641 1.3999C11.5609 1.71709 4.50625 3.66865 4.40156 3.6999C3.35469 4.09365 2.69219 4.48115 2.27656 4.9374C2.76406 4.60771 3.34531 4.3999 4.00156 4.3999H15.2016V3.0624C15.2016 2.41553 15.1969 1.2124 13.8891 1.2124ZM4.00156 5.1999C2.51406 5.1999 1.60156 6.59834 1.60156 7.5999V16.1499C1.60156 17.389 2.6125 18.3999 3.85156 18.3999H16.1516C17.3906 18.3999 18.4016 17.389 18.4016 16.1499V7.5374C18.4016 6.31396 17.2578 5.1999 16.0016 5.1999H4.00156ZM15.4016 10.7999C15.9531 10.7999 16.4016 11.2468 16.4016 11.7999C16.4016 12.353 15.9531 12.7999 15.4016 12.7999C14.8484 12.7999 14.4016 12.353 14.4016 11.7999C14.4016 11.2468 14.8484 10.7999 15.4016 10.7999Z" fill="white" fill-opacity="0.4"/>
</svg>
